%TF.GenerationSoftware,KiCad,Pcbnew,9.0.3*%
%TF.CreationDate,2025-07-28T19:10:52+02:00*%
%TF.ProjectId,hermes,6865726d-6573-42e6-9b69-6361645f7063,rev?*%
%TF.SameCoordinates,Original*%
%TF.FileFunction,Copper,L2,Bot*%
%TF.FilePolarity,Positive*%
%FSLAX46Y46*%
G04 Gerber Fmt 4.6, Leading zero omitted, Abs format (unit mm)*
G04 Created by KiCad (PCBNEW 9.0.3) date 2025-07-28 19:10:52*
%MOMM*%
%LPD*%
G01*
G04 APERTURE LIST*
%TA.AperFunction,ComponentPad*%
%ADD10R,1.508000X1.508000*%
%TD*%
%TA.AperFunction,ComponentPad*%
%ADD11C,1.508000*%
%TD*%
%TA.AperFunction,ComponentPad*%
%ADD12C,3.000000*%
%TD*%
%TA.AperFunction,ComponentPad*%
%ADD13R,0.850000X0.850000*%
%TD*%
%TA.AperFunction,ComponentPad*%
%ADD14C,0.850000*%
%TD*%
%TA.AperFunction,HeatsinkPad*%
%ADD15O,2.100000X1.000000*%
%TD*%
%TA.AperFunction,HeatsinkPad*%
%ADD16O,1.800000X1.000000*%
%TD*%
%TA.AperFunction,SMDPad,CuDef*%
%ADD17R,1.550000X0.410000*%
%TD*%
%TA.AperFunction,SMDPad,CuDef*%
%ADD18R,1.550000X0.260000*%
%TD*%
%TA.AperFunction,SMDPad,CuDef*%
%ADD19R,1.500000X0.800000*%
%TD*%
%TA.AperFunction,SMDPad,CuDef*%
%ADD20R,2.050000X0.360000*%
%TD*%
%TA.AperFunction,SMDPad,CuDef*%
%ADD21R,1.500000X0.700000*%
%TD*%
%TA.AperFunction,ViaPad*%
%ADD22C,0.600000*%
%TD*%
%TA.AperFunction,Conductor*%
%ADD23C,0.150000*%
%TD*%
G04 APERTURE END LIST*
D10*
%TO.P,U3,1,GND*%
%TO.N,GND*%
X159080000Y-89152500D03*
D11*
%TO.P,U3,2,VCC_IN*%
%TO.N,3V3*%
X161620000Y-89152500D03*
%TO.P,U3,3,SCL*%
%TO.N,SCL*%
X164160000Y-89152500D03*
%TO.P,U3,4,SDA*%
%TO.N,SDA*%
X166700000Y-89152500D03*
D12*
%TO.P,U3,S1*%
%TO.N,N/C*%
X151890000Y-89652500D03*
%TO.P,U3,S2*%
X173890000Y-89652500D03*
%TO.P,U3,S3*%
X173890000Y-111652500D03*
%TO.P,U3,S4*%
X151890000Y-111652500D03*
%TD*%
D13*
%TO.P,PWM6,1,Pin_1*%
%TO.N,PWM6*%
X182180000Y-90340000D03*
D14*
%TO.P,PWM6,2,Pin_2*%
%TO.N,5V*%
X183180000Y-90340000D03*
%TO.P,PWM6,3,Pin_3*%
%TO.N,GND*%
X184180000Y-90340000D03*
%TD*%
D13*
%TO.P,PWM5,1,Pin_1*%
%TO.N,PWM5*%
X182180000Y-93670000D03*
D14*
%TO.P,PWM5,2,Pin_2*%
%TO.N,5V*%
X183180000Y-93670000D03*
%TO.P,PWM5,3,Pin_3*%
%TO.N,GND*%
X184180000Y-93670000D03*
%TD*%
D13*
%TO.P,PWM4,1,Pin_1*%
%TO.N,PWM4*%
X182180000Y-97000000D03*
D14*
%TO.P,PWM4,2,Pin_2*%
%TO.N,5V*%
X183180000Y-97000000D03*
%TO.P,PWM4,3,Pin_3*%
%TO.N,GND*%
X184180000Y-97000000D03*
%TD*%
D13*
%TO.P,PWM1,1,Pin_1*%
%TO.N,PWM1*%
X182180000Y-106990000D03*
D14*
%TO.P,PWM1,2,Pin_2*%
%TO.N,5V*%
X183180000Y-106990000D03*
%TO.P,PWM1,3,Pin_3*%
%TO.N,GND*%
X184180000Y-106990000D03*
%TD*%
D13*
%TO.P,PWM3,1,Pin_1*%
%TO.N,PWM3*%
X182180000Y-100330000D03*
D14*
%TO.P,PWM3,2,Pin_2*%
%TO.N,5V*%
X183180000Y-100330000D03*
%TO.P,PWM3,3,Pin_3*%
%TO.N,GND*%
X184180000Y-100330000D03*
%TD*%
D15*
%TO.P,J1,S1,SHIELD*%
%TO.N,GND*%
X146585000Y-101350000D03*
D16*
X142405000Y-101350000D03*
D15*
X146585000Y-109990000D03*
D16*
X142405000Y-109990000D03*
%TD*%
D13*
%TO.P,PWM2,1,Pin_1*%
%TO.N,PWM2*%
X182180000Y-103660000D03*
D14*
%TO.P,PWM2,2,Pin_2*%
%TO.N,5V*%
X183180000Y-103660000D03*
%TO.P,PWM2,3,Pin_3*%
%TO.N,GND*%
X184180000Y-103660000D03*
%TD*%
%TO.P,12VBattery1,2,Pin_2*%
%TO.N,GND*%
X106090000Y-105860000D03*
D13*
%TO.P,12VBattery1,1,Pin_1*%
%TO.N,12V*%
X106090000Y-106860000D03*
%TD*%
D17*
%TO.P,P1,B1,GND*%
%TO.N,GND*%
X120647517Y-108895452D03*
D18*
%TO.P,P1,B2*%
%TO.N,N/C*%
X120647517Y-108320452D03*
%TO.P,P1,B3*%
X120647517Y-107820452D03*
%TO.P,P1,B4,VBUS*%
%TO.N,VBUS*%
X120647517Y-107320452D03*
%TO.P,P1,B5,VCONN*%
%TO.N,unconnected-(P1-VCONN-PadB5)*%
X120647517Y-106820452D03*
%TO.P,P1,B6*%
%TO.N,N/C*%
X120647517Y-106320452D03*
%TO.P,P1,B7*%
X120647517Y-105820452D03*
%TO.P,P1,B8*%
X120647517Y-105320452D03*
%TO.P,P1,B9,VBUS*%
%TO.N,VBUS*%
X120647517Y-104820452D03*
%TO.P,P1,B10*%
%TO.N,N/C*%
X120647517Y-104320452D03*
%TO.P,P1,B11*%
X120647517Y-103820452D03*
D17*
%TO.P,P1,B12,GND*%
%TO.N,GND*%
X120647517Y-103245452D03*
D19*
%TO.P,P1,S1,SHIELD*%
X118327517Y-109695452D03*
D20*
X120397517Y-109475452D03*
D21*
X118327517Y-102800452D03*
D20*
X120397517Y-102665452D03*
%TD*%
D22*
%TO.N,Net-(J1-CC2)*%
X148140397Y-107311007D03*
X150730000Y-104720000D03*
%TO.N,5V*%
X174470000Y-109350000D03*
%TO.N,3V3*%
X175840000Y-125850000D03*
%TO.N,5V*%
X154060000Y-109340000D03*
%TO.N,Net-(U5-GPIO7)*%
X179710000Y-115080000D03*
%TO.N,GND*%
X164660000Y-123820000D03*
X171000000Y-123890000D03*
%TO.N,Net-(U5-GPIO7)*%
X163535000Y-116200000D03*
%TO.N,3V3*%
X152210000Y-116520000D03*
%TO.N,USB_D-*%
X148900000Y-107060000D03*
X149701159Y-106138841D03*
%TO.N,Net-(U5-GPIO8)*%
X162530000Y-116720000D03*
%TO.N,3V3*%
X174590000Y-119510000D03*
%TO.N,Net-(U5-GPIO8)*%
X171590000Y-114780000D03*
%TO.N,3V3*%
X167310000Y-116940000D03*
%TO.N,5V*%
X150990000Y-109330000D03*
%TO.N,SDA*%
X180410000Y-111860000D03*
%TO.N,GND*%
X180374117Y-122925096D03*
X178198557Y-120875000D03*
X159260000Y-121240000D03*
%TO.N,SDA*%
X176730000Y-121275000D03*
X180120000Y-110180000D03*
%TO.N,SCL*%
X179910000Y-112840000D03*
%TO.N,3V3*%
X180500000Y-125520000D03*
%TO.N,5V*%
X163535000Y-109350000D03*
%TO.N,VBUS*%
X115920000Y-107560000D03*
%TO.N,GND*%
X119365000Y-108901200D03*
X119381654Y-103252146D03*
%TO.N,VBUS*%
X114125000Y-107030000D03*
%TD*%
D23*
%TO.N,SCL*%
X164160000Y-97090000D02*
X179910000Y-112840000D01*
%TO.N,3V3*%
X161620000Y-89152500D02*
X161620000Y-111250000D01*
X161620000Y-111250000D02*
X167310000Y-116940000D01*
%TO.N,GND*%
X162200000Y-121360000D02*
X164660000Y-123820000D01*
X142405000Y-109990000D02*
X142405000Y-101350000D01*
X146585000Y-109990000D02*
X142405000Y-109990000D01*
%TO.N,USB_D-*%
X149701159Y-106258841D02*
X148900000Y-107060000D01*
%TO.N,Net-(U5-GPIO8)*%
X163296412Y-115624000D02*
X162530000Y-116390412D01*
%TO.N,GND*%
X142405000Y-101350000D02*
X146585000Y-101350000D01*
%TO.N,Net-(U5-GPIO8)*%
X163773588Y-115624000D02*
X163296412Y-115624000D01*
%TO.N,USB_D-*%
X149701159Y-106138841D02*
X149701159Y-106258841D01*
%TO.N,GND*%
X159260000Y-121240000D02*
X159380000Y-121360000D01*
%TO.N,Net-(U5-GPIO8)*%
X168854000Y-117516000D02*
X165665588Y-117516000D01*
X162530000Y-116390412D02*
X162530000Y-116720000D01*
X171590000Y-114780000D02*
X168854000Y-117516000D01*
%TO.N,Net-(J1-CC2)*%
X150305412Y-104720000D02*
X150730000Y-104720000D01*
X148140397Y-106885015D02*
X150305412Y-104720000D01*
%TO.N,Net-(U5-GPIO7)*%
X165481000Y-118146000D02*
X176644000Y-118146000D01*
%TO.N,Net-(U5-GPIO8)*%
X165665588Y-117516000D02*
X163773588Y-115624000D01*
%TO.N,3V3*%
X174590000Y-124600000D02*
X175540000Y-125550000D01*
%TO.N,GND*%
X159380000Y-121360000D02*
X162200000Y-121360000D01*
%TO.N,Net-(U5-GPIO7)*%
X176644000Y-118146000D02*
X179710000Y-115080000D01*
%TO.N,3V3*%
X174590000Y-119510000D02*
X174590000Y-124600000D01*
%TO.N,Net-(J1-CC2)*%
X148140397Y-107311007D02*
X148140397Y-106885015D01*
%TO.N,5V*%
X174470000Y-109350000D02*
X163535000Y-109350000D01*
X151000000Y-109340000D02*
X150990000Y-109330000D01*
%TO.N,GND*%
X184180000Y-106990000D02*
X184180000Y-119119213D01*
%TO.N,5V*%
X154060000Y-109340000D02*
X151000000Y-109340000D01*
%TO.N,3V3*%
X152210000Y-116520000D02*
X156350000Y-116520000D01*
X156350000Y-116520000D02*
X161620000Y-111250000D01*
X175540000Y-125550000D02*
X180470000Y-125550000D01*
%TO.N,SDA*%
X176730000Y-121275000D02*
X180486000Y-117519000D01*
%TO.N,GND*%
X184180000Y-119119213D02*
X180374117Y-122925096D01*
X178198557Y-120875000D02*
X180248653Y-122925096D01*
%TO.N,Net-(U5-GPIO7)*%
X163535000Y-116200000D02*
X165481000Y-118146000D01*
%TO.N,SDA*%
X180120000Y-102572500D02*
X166700000Y-89152500D01*
%TO.N,GND*%
X170930000Y-123820000D02*
X171000000Y-123890000D01*
%TO.N,SCL*%
X164160000Y-89152500D02*
X164160000Y-97090000D01*
%TO.N,3V3*%
X180470000Y-125550000D02*
X180500000Y-125520000D01*
%TO.N,SDA*%
X180486000Y-117519000D02*
X180486000Y-111936000D01*
X180120000Y-110180000D02*
X180120000Y-102572500D01*
%TO.N,3V3*%
X175540000Y-125550000D02*
X175840000Y-125850000D01*
%TO.N,SDA*%
X180486000Y-111936000D02*
X180410000Y-111860000D01*
%TO.N,GND*%
X180248653Y-122925096D02*
X180374117Y-122925096D01*
X164660000Y-123820000D02*
X170930000Y-123820000D01*
%TO.N,VBUS*%
X115390000Y-107030000D02*
X115920000Y-107560000D01*
X114125000Y-107030000D02*
X115390000Y-107030000D01*
%TO.N,GND*%
X120647517Y-108895452D02*
X120397517Y-109145452D01*
X120397517Y-109145452D02*
X120397517Y-109394452D01*
X119365000Y-108901200D02*
X119365000Y-103268800D01*
X118570748Y-109695452D02*
X119365000Y-108901200D01*
X118327517Y-109695452D02*
X118570748Y-109695452D01*
X120647517Y-103245452D02*
X120647517Y-102915452D01*
X120478517Y-102746452D02*
X120397517Y-102746452D01*
X119365000Y-103268800D02*
X119381654Y-103252146D01*
X118929960Y-102800452D02*
X119381654Y-103252146D01*
X120647517Y-102915452D02*
X120478517Y-102746452D01*
X118327517Y-102800452D02*
X118929960Y-102800452D01*
%TD*%
M02*
