%TF.GenerationSoftware,KiCad,Pcbnew,9.0.3*%
%TF.CreationDate,2025-07-28T19:10:52+02:00*%
%TF.ProjectId,hermes,6865726d-6573-42e6-9b69-6361645f7063,rev?*%
%TF.SameCoordinates,Original*%
%TF.FileFunction,Profile,NP*%
%FSLAX46Y46*%
G04 Gerber Fmt 4.6, Leading zero omitted, Abs format (unit mm)*
G04 Created by KiCad (PCBNEW 9.0.3) date 2025-07-28 19:10:52*
%MOMM*%
%LPD*%
G01*
G04 APERTURE LIST*
%TA.AperFunction,Profile*%
%ADD10C,0.050000*%
%TD*%
%TA.AperFunction,Profile*%
%ADD11C,0.100000*%
%TD*%
G04 APERTURE END LIST*
D10*
X187060000Y-126680000D02*
X187060000Y-87600000D01*
X140810000Y-86600000D02*
X186060000Y-86600000D01*
X139810000Y-126680000D02*
X139810000Y-87600000D01*
X186060000Y-86600000D02*
X187060000Y-87600000D01*
X186060000Y-127680000D02*
X187060000Y-126680000D01*
X140810000Y-127680000D02*
X186060000Y-127680000D01*
X140810000Y-127680000D02*
X139810000Y-126680000D01*
X139810000Y-87600000D02*
X140810000Y-86600000D01*
X122603938Y-99970000D02*
X121603938Y-98970000D01*
X121603938Y-98970000D02*
X103910000Y-98970000D01*
X102910000Y-112670000D02*
X102910000Y-99970000D01*
X102910000Y-99970000D02*
X103910000Y-98970000D01*
X122603938Y-112670000D02*
X122603938Y-99970000D01*
X121603938Y-113670000D02*
X103910000Y-113670000D01*
X103910000Y-113670000D02*
X102910000Y-112670000D01*
X121603938Y-113670000D02*
X122603938Y-112670000D01*
D11*
%TO.C,P1*%
X117570017Y-110370452D02*
X119272517Y-110370452D01*
X119272517Y-110370452D02*
X119272517Y-109970452D01*
X121422517Y-109970452D02*
X119272517Y-109970452D01*
X121872517Y-109600452D02*
X121422517Y-109970452D01*
X121872517Y-109195452D02*
X121872517Y-109600452D01*
X122322517Y-108995452D02*
X122072517Y-108995452D01*
X122522517Y-106570452D02*
X122522517Y-108795452D01*
X122122517Y-106370452D02*
X122322517Y-106370452D01*
X121922517Y-106170452D02*
X121922517Y-105170452D01*
X122322517Y-104970452D02*
X122122517Y-104970452D01*
X122522517Y-104770452D02*
X122522517Y-103345452D01*
X122322517Y-103145452D02*
X122072517Y-103145452D01*
X121872517Y-102945452D02*
X121872517Y-102495452D01*
X121872517Y-102495452D02*
X121422517Y-102170452D01*
X121422517Y-102170452D02*
X117582517Y-102170452D01*
X121872517Y-109195452D02*
G75*
G02*
X122072517Y-108995452I200001J-1D01*
G01*
X122522517Y-108795452D02*
G75*
G02*
X122322517Y-108995452I-200001J1D01*
G01*
X122122517Y-106370452D02*
G75*
G02*
X121922517Y-106170452I1J200001D01*
G01*
X122322517Y-106370452D02*
G75*
G02*
X122522517Y-106570452I-1J-200001D01*
G01*
X121922517Y-105170452D02*
G75*
G02*
X122122517Y-104970452I200000J0D01*
G01*
X122522517Y-104770452D02*
G75*
G02*
X122322517Y-104970452I-200000J0D01*
G01*
X122072517Y-103145452D02*
G75*
G02*
X121872517Y-102945452I0J200000D01*
G01*
X122322517Y-103145452D02*
G75*
G02*
X122522517Y-103345452I0J-200000D01*
G01*
%TD*%
M02*
