%TF.GenerationSoftware,KiCad,Pcbnew,9.0.3*%
%TF.CreationDate,2025-07-28T19:10:52+02:00*%
%TF.ProjectId,hermes,6865726d-6573-42e6-9b69-6361645f7063,rev?*%
%TF.SameCoordinates,Original*%
%TF.FileFunction,Copper,L1,Top*%
%TF.FilePolarity,Positive*%
%FSLAX46Y46*%
G04 Gerber Fmt 4.6, Leading zero omitted, Abs format (unit mm)*
G04 Created by KiCad (PCBNEW 9.0.3) date 2025-07-28 19:10:52*
%MOMM*%
%LPD*%
G01*
G04 APERTURE LIST*
G04 Aperture macros list*
%AMRoundRect*
0 Rectangle with rounded corners*
0 $1 Rounding radius*
0 $2 $3 $4 $5 $6 $7 $8 $9 X,Y pos of 4 corners*
0 Add a 4 corners polygon primitive as box body*
4,1,4,$2,$3,$4,$5,$6,$7,$8,$9,$2,$3,0*
0 Add four circle primitives for the rounded corners*
1,1,$1+$1,$2,$3*
1,1,$1+$1,$4,$5*
1,1,$1+$1,$6,$7*
1,1,$1+$1,$8,$9*
0 Add four rect primitives between the rounded corners*
20,1,$1+$1,$2,$3,$4,$5,0*
20,1,$1+$1,$4,$5,$6,$7,0*
20,1,$1+$1,$6,$7,$8,$9,0*
20,1,$1+$1,$8,$9,$2,$3,0*%
G04 Aperture macros list end*
%TA.AperFunction,SMDPad,CuDef*%
%ADD10RoundRect,0.150000X-0.825000X-0.150000X0.825000X-0.150000X0.825000X0.150000X-0.825000X0.150000X0*%
%TD*%
%TA.AperFunction,ComponentPad*%
%ADD11R,1.508000X1.508000*%
%TD*%
%TA.AperFunction,ComponentPad*%
%ADD12C,1.508000*%
%TD*%
%TA.AperFunction,ComponentPad*%
%ADD13C,3.000000*%
%TD*%
%TA.AperFunction,ComponentPad*%
%ADD14R,0.850000X0.850000*%
%TD*%
%TA.AperFunction,ComponentPad*%
%ADD15C,0.850000*%
%TD*%
%TA.AperFunction,SMDPad,CuDef*%
%ADD16RoundRect,0.027500X-0.082500X-0.292500X0.082500X-0.292500X0.082500X0.292500X-0.082500X0.292500X0*%
%TD*%
%TA.AperFunction,SMDPad,CuDef*%
%ADD17RoundRect,0.027500X-0.292500X-0.082500X0.292500X-0.082500X0.292500X0.082500X-0.292500X0.082500X0*%
%TD*%
%TA.AperFunction,SMDPad,CuDef*%
%ADD18R,1.540000X1.700000*%
%TD*%
%TA.AperFunction,SMDPad,CuDef*%
%ADD19RoundRect,0.050000X-0.050000X0.350000X-0.050000X-0.350000X0.050000X-0.350000X0.050000X0.350000X0*%
%TD*%
%TA.AperFunction,SMDPad,CuDef*%
%ADD20RoundRect,0.050000X-0.350000X0.050000X-0.350000X-0.050000X0.350000X-0.050000X0.350000X0.050000X0*%
%TD*%
%TA.AperFunction,HeatsinkPad*%
%ADD21R,4.000000X4.000000*%
%TD*%
%TA.AperFunction,SMDPad,CuDef*%
%ADD22RoundRect,0.100000X0.100000X-0.130000X0.100000X0.130000X-0.100000X0.130000X-0.100000X-0.130000X0*%
%TD*%
%TA.AperFunction,SMDPad,CuDef*%
%ADD23RoundRect,0.100000X-0.130000X-0.100000X0.130000X-0.100000X0.130000X0.100000X-0.130000X0.100000X0*%
%TD*%
%TA.AperFunction,SMDPad,CuDef*%
%ADD24RoundRect,0.140000X-0.140000X-0.170000X0.140000X-0.170000X0.140000X0.170000X-0.140000X0.170000X0*%
%TD*%
%TA.AperFunction,SMDPad,CuDef*%
%ADD25RoundRect,0.140000X0.140000X0.170000X-0.140000X0.170000X-0.140000X-0.170000X0.140000X-0.170000X0*%
%TD*%
%TA.AperFunction,SMDPad,CuDef*%
%ADD26RoundRect,0.150000X-0.425000X0.150000X-0.425000X-0.150000X0.425000X-0.150000X0.425000X0.150000X0*%
%TD*%
%TA.AperFunction,SMDPad,CuDef*%
%ADD27RoundRect,0.075000X-0.500000X0.075000X-0.500000X-0.075000X0.500000X-0.075000X0.500000X0.075000X0*%
%TD*%
%TA.AperFunction,HeatsinkPad*%
%ADD28O,2.100000X1.000000*%
%TD*%
%TA.AperFunction,HeatsinkPad*%
%ADD29O,1.800000X1.000000*%
%TD*%
%TA.AperFunction,SMDPad,CuDef*%
%ADD30RoundRect,0.150000X0.150000X-0.825000X0.150000X0.825000X-0.150000X0.825000X-0.150000X-0.825000X0*%
%TD*%
%TA.AperFunction,SMDPad,CuDef*%
%ADD31R,1.750000X0.360000*%
%TD*%
%TA.AperFunction,SMDPad,CuDef*%
%ADD32R,1.550000X0.410000*%
%TD*%
%TA.AperFunction,SMDPad,CuDef*%
%ADD33R,1.550000X0.260000*%
%TD*%
%TA.AperFunction,ViaPad*%
%ADD34C,0.600000*%
%TD*%
%TA.AperFunction,Conductor*%
%ADD35C,0.150000*%
%TD*%
G04 APERTURE END LIST*
D10*
%TO.P,U4,1,VIN*%
%TO.N,5V*%
X150665000Y-115235000D03*
%TO.P,U4,2,OUT*%
%TO.N,3V3*%
X150665000Y-116505000D03*
%TO.P,U4,3,FB*%
%TO.N,unconnected-(U4-FB-Pad3)*%
X150665000Y-117775000D03*
%TO.P,U4,4,~{EN}*%
%TO.N,GND*%
X150665000Y-119045000D03*
%TO.P,U4,5,GND*%
X155615000Y-119045000D03*
%TO.P,U4,6,GND*%
X155615000Y-117775000D03*
%TO.P,U4,7,GND*%
X155615000Y-116505000D03*
%TO.P,U4,8,GND*%
X155615000Y-115235000D03*
%TD*%
D11*
%TO.P,U3,1,GND*%
%TO.N,GND*%
X159080000Y-89152500D03*
D12*
%TO.P,U3,2,VCC_IN*%
%TO.N,3V3*%
X161620000Y-89152500D03*
%TO.P,U3,3,SCL*%
%TO.N,SCL*%
X164160000Y-89152500D03*
%TO.P,U3,4,SDA*%
%TO.N,SDA*%
X166700000Y-89152500D03*
D13*
%TO.P,U3,S1*%
%TO.N,N/C*%
X151890000Y-89652500D03*
%TO.P,U3,S2*%
X173890000Y-89652500D03*
%TO.P,U3,S3*%
X173890000Y-111652500D03*
%TO.P,U3,S4*%
X151890000Y-111652500D03*
%TD*%
D14*
%TO.P,PWM6,1,Pin_1*%
%TO.N,PWM6*%
X182180000Y-90340000D03*
D15*
%TO.P,PWM6,2,Pin_2*%
%TO.N,5V*%
X183180000Y-90340000D03*
%TO.P,PWM6,3,Pin_3*%
%TO.N,GND*%
X184180000Y-90340000D03*
%TD*%
D14*
%TO.P,PWM5,1,Pin_1*%
%TO.N,PWM5*%
X182180000Y-93670000D03*
D15*
%TO.P,PWM5,2,Pin_2*%
%TO.N,5V*%
X183180000Y-93670000D03*
%TO.P,PWM5,3,Pin_3*%
%TO.N,GND*%
X184180000Y-93670000D03*
%TD*%
D16*
%TO.P,U2,7,AUX_CL*%
%TO.N,unconnected-(U2-AUX_CL-Pad7)*%
X177010000Y-124785000D03*
%TO.P,U2,8,VDDIO*%
%TO.N,3V3*%
X177410000Y-124785000D03*
%TO.P,U2,9,AD0/SDO*%
%TO.N,unconnected-(U2-AD0{slash}SDO-Pad9)*%
X177810000Y-124785000D03*
%TO.P,U2,10,REGOUT*%
%TO.N,Net-(U2-REGOUT)*%
X178210000Y-124785000D03*
%TO.P,U2,11,FSYNC*%
%TO.N,unconnected-(U2-FSYNC-Pad11)*%
X178610000Y-124785000D03*
%TO.P,U2,12,INT*%
%TO.N,ACCELINT*%
X179010000Y-124785000D03*
%TO.P,U2,19,RESV_1*%
%TO.N,unconnected-(U2-RESV_1-Pad19)*%
X179010000Y-121695000D03*
%TO.P,U2,20,RESV_2*%
%TO.N,GND*%
X178610000Y-121695000D03*
%TO.P,U2,21,AUX_DA*%
%TO.N,unconnected-(U2-AUX_DA-Pad21)*%
X178210000Y-121695000D03*
%TO.P,U2,22,NCS*%
%TO.N,unconnected-(U2-NCS-Pad22)*%
X177810000Y-121695000D03*
%TO.P,U2,23,SCL/SCLK*%
%TO.N,unconnected-(U2-SCL{slash}SCLK-Pad23)*%
X177410000Y-121695000D03*
%TO.P,U2,24,SDA/SDI*%
%TO.N,SDA*%
X177010000Y-121695000D03*
D17*
%TO.P,U2,1*%
%TO.N,N/C*%
X176465000Y-122240000D03*
%TO.P,U2,2*%
X176465000Y-122640000D03*
%TO.P,U2,3*%
X176465000Y-123040000D03*
%TO.P,U2,4*%
X176465000Y-123440000D03*
%TO.P,U2,5*%
X176465000Y-123840000D03*
%TO.P,U2,6*%
X176465000Y-124240000D03*
%TO.P,U2,13,VDD*%
%TO.N,3V3*%
X179555000Y-124240000D03*
%TO.P,U2,14*%
%TO.N,N/C*%
X179555000Y-123840000D03*
%TO.P,U2,15*%
X179555000Y-123440000D03*
%TO.P,U2,16*%
X179555000Y-123040000D03*
%TO.P,U2,17*%
X179555000Y-122640000D03*
%TO.P,U2,18,GND*%
%TO.N,GND*%
X179555000Y-122240000D03*
D18*
%TO.P,U2,25,EXP*%
%TO.N,unconnected-(U2-EXP-Pad25)*%
X178010000Y-123240000D03*
%TD*%
D19*
%TO.P,U5,1,LNA_IN*%
%TO.N,unconnected-(U5-LNA_IN-Pad1)*%
X168110000Y-117930000D03*
%TO.P,U5,2,VDD3P3*%
%TO.N,3V3*%
X167710000Y-117930000D03*
%TO.P,U5,3,VDD3P3*%
X167310000Y-117930000D03*
%TO.P,U5,4,CHIP_PU*%
%TO.N,unconnected-(U5-CHIP_PU-Pad4)*%
X166910000Y-117930000D03*
%TO.P,U5,5,GPIO0*%
%TO.N,ACCELINT*%
X166510000Y-117930000D03*
%TO.P,U5,6,GPIO1*%
%TO.N,PWM1*%
X166110000Y-117930000D03*
%TO.P,U5,7,GPIO2*%
%TO.N,PWM2*%
X165710000Y-117930000D03*
%TO.P,U5,8,GPIO3*%
%TO.N,PWM3*%
X165310000Y-117930000D03*
%TO.P,U5,9,GPIO4*%
%TO.N,PWM4*%
X164910000Y-117930000D03*
%TO.P,U5,10,GPIO5*%
%TO.N,PWM5*%
X164510000Y-117930000D03*
%TO.P,U5,11,GPIO6*%
%TO.N,PWM6*%
X164110000Y-117930000D03*
%TO.P,U5,12,GPIO7*%
%TO.N,Net-(U5-GPIO7)*%
X163710000Y-117930000D03*
%TO.P,U5,13,GPIO8*%
%TO.N,Net-(U5-GPIO8)*%
X163310000Y-117930000D03*
%TO.P,U5,14,GPIO9*%
%TO.N,unconnected-(U5-GPIO9-Pad14)*%
X162910000Y-117930000D03*
D20*
%TO.P,U5,15,GPIO10*%
%TO.N,unconnected-(U5-GPIO10-Pad15)*%
X162060000Y-118780000D03*
%TO.P,U5,16,GPIO11*%
%TO.N,unconnected-(U5-GPIO11-Pad16)*%
X162060000Y-119180000D03*
%TO.P,U5,17,GPIO12*%
%TO.N,unconnected-(U5-GPIO12-Pad17)*%
X162060000Y-119580000D03*
%TO.P,U5,18,GPIO13*%
%TO.N,unconnected-(U5-GPIO13-Pad18)*%
X162060000Y-119980000D03*
%TO.P,U5,19,GPIO14*%
%TO.N,unconnected-(U5-GPIO14-Pad19)*%
X162060000Y-120380000D03*
%TO.P,U5,20,VDD3P3_RTC*%
%TO.N,unconnected-(U5-VDD3P3_RTC-Pad20)*%
X162060000Y-120780000D03*
%TO.P,U5,21,XTAL_32K_P*%
%TO.N,unconnected-(U5-XTAL_32K_P-Pad21)*%
X162060000Y-121180000D03*
%TO.P,U5,22,XTAL_32K_N*%
%TO.N,unconnected-(U5-XTAL_32K_N-Pad22)*%
X162060000Y-121580000D03*
%TO.P,U5,23,GPIO17*%
%TO.N,unconnected-(U5-GPIO17-Pad23)*%
X162060000Y-121980000D03*
%TO.P,U5,24,GPIO18*%
%TO.N,unconnected-(U5-GPIO18-Pad24)*%
X162060000Y-122380000D03*
%TO.P,U5,25,GPIO19/USB_D-*%
%TO.N,USB_D-*%
X162060000Y-122780000D03*
%TO.P,U5,26,GPIO20/USB_D+*%
%TO.N,USB_D+*%
X162060000Y-123180000D03*
%TO.P,U5,27,GPIO21*%
%TO.N,unconnected-(U5-GPIO21-Pad27)*%
X162060000Y-123580000D03*
%TO.P,U5,28,SPICS1*%
%TO.N,unconnected-(U5-SPICS1-Pad28)*%
X162060000Y-123980000D03*
D19*
%TO.P,U5,29,VDD_SPI*%
%TO.N,unconnected-(U5-VDD_SPI-Pad29)*%
X162910000Y-124830000D03*
%TO.P,U5,30,SPIHD*%
%TO.N,unconnected-(U5-SPIHD-Pad30)*%
X163310000Y-124830000D03*
%TO.P,U5,31,SPIWP*%
%TO.N,unconnected-(U5-SPIWP-Pad31)*%
X163710000Y-124830000D03*
%TO.P,U5,32,SPICS0*%
%TO.N,unconnected-(U5-SPICS0-Pad32)*%
X164110000Y-124830000D03*
%TO.P,U5,33,SPICLK*%
%TO.N,unconnected-(U5-SPICLK-Pad33)*%
X164510000Y-124830000D03*
%TO.P,U5,34,SPIQ*%
%TO.N,unconnected-(U5-SPIQ-Pad34)*%
X164910000Y-124830000D03*
%TO.P,U5,35,SPID*%
%TO.N,unconnected-(U5-SPID-Pad35)*%
X165310000Y-124830000D03*
%TO.P,U5,36,SPICLK_N*%
%TO.N,unconnected-(U5-SPICLK_N-Pad36)*%
X165710000Y-124830000D03*
%TO.P,U5,37,SPICLK_P*%
%TO.N,unconnected-(U5-SPICLK_P-Pad37)*%
X166110000Y-124830000D03*
%TO.P,U5,38,GPIO33*%
%TO.N,unconnected-(U5-GPIO33-Pad38)*%
X166510000Y-124830000D03*
%TO.P,U5,39,GPIO34*%
%TO.N,unconnected-(U5-GPIO34-Pad39)*%
X166910000Y-124830000D03*
%TO.P,U5,40,GPIO35*%
%TO.N,unconnected-(U5-GPIO35-Pad40)*%
X167310000Y-124830000D03*
%TO.P,U5,41,GPIO36*%
%TO.N,unconnected-(U5-GPIO36-Pad41)*%
X167710000Y-124830000D03*
%TO.P,U5,42,GPIO37*%
%TO.N,unconnected-(U5-GPIO37-Pad42)*%
X168110000Y-124830000D03*
D20*
%TO.P,U5,43,GPIO38*%
%TO.N,unconnected-(U5-GPIO38-Pad43)*%
X168960000Y-123980000D03*
%TO.P,U5,44,MTCK*%
%TO.N,unconnected-(U5-MTCK-Pad44)*%
X168960000Y-123580000D03*
%TO.P,U5,45,MTDO*%
%TO.N,unconnected-(U5-MTDO-Pad45)*%
X168960000Y-123180000D03*
%TO.P,U5,46,VDD3P3_CPU*%
%TO.N,unconnected-(U5-VDD3P3_CPU-Pad46)*%
X168960000Y-122780000D03*
%TO.P,U5,47,MTDI*%
%TO.N,unconnected-(U5-MTDI-Pad47)*%
X168960000Y-122380000D03*
%TO.P,U5,48,MTMS*%
%TO.N,unconnected-(U5-MTMS-Pad48)*%
X168960000Y-121980000D03*
%TO.P,U5,49,U0TXD*%
%TO.N,unconnected-(U5-U0TXD-Pad49)*%
X168960000Y-121580000D03*
%TO.P,U5,50,U0RXD*%
%TO.N,unconnected-(U5-U0RXD-Pad50)*%
X168960000Y-121180000D03*
%TO.P,U5,51,GPIO45*%
%TO.N,unconnected-(U5-GPIO45-Pad51)*%
X168960000Y-120780000D03*
%TO.P,U5,52,GPIO46*%
%TO.N,unconnected-(U5-GPIO46-Pad52)*%
X168960000Y-120380000D03*
%TO.P,U5,53,XTAL_N*%
%TO.N,unconnected-(U5-XTAL_N-Pad53)*%
X168960000Y-119980000D03*
%TO.P,U5,54,XTAL_P*%
%TO.N,unconnected-(U5-XTAL_P-Pad54)*%
X168960000Y-119580000D03*
%TO.P,U5,55,VDDA*%
%TO.N,Net-(U5-VDDA-Pad55)*%
X168960000Y-119180000D03*
%TO.P,U5,56,VDDA*%
X168960000Y-118780000D03*
D21*
%TO.P,U5,57,GND*%
%TO.N,GND*%
X165510000Y-121380000D03*
%TD*%
D14*
%TO.P,PWM4,1,Pin_1*%
%TO.N,PWM4*%
X182180000Y-97000000D03*
D15*
%TO.P,PWM4,2,Pin_2*%
%TO.N,5V*%
X183180000Y-97000000D03*
%TO.P,PWM4,3,Pin_3*%
%TO.N,GND*%
X184180000Y-97000000D03*
%TD*%
D14*
%TO.P,PWM1,1,Pin_1*%
%TO.N,PWM1*%
X182180000Y-106990000D03*
D15*
%TO.P,PWM1,2,Pin_2*%
%TO.N,5V*%
X183180000Y-106990000D03*
%TO.P,PWM1,3,Pin_3*%
%TO.N,GND*%
X184180000Y-106990000D03*
%TD*%
D22*
%TO.P,R6,1*%
%TO.N,Net-(J1-CC2)*%
X150760000Y-103870000D03*
%TO.P,R6,2*%
%TO.N,GND*%
X150760000Y-103230000D03*
%TD*%
D23*
%TO.P,R1,1*%
%TO.N,SDA*%
X181400000Y-111250000D03*
%TO.P,R1,2*%
%TO.N,Net-(U5-GPIO7)*%
X182040000Y-111250000D03*
%TD*%
D22*
%TO.P,R5,2*%
%TO.N,GND*%
X149010000Y-103230000D03*
%TO.P,R5,1*%
%TO.N,Net-(J1-CC1)*%
X149010000Y-103870000D03*
%TD*%
D14*
%TO.P,PWM3,1,Pin_1*%
%TO.N,PWM3*%
X182180000Y-100330000D03*
D15*
%TO.P,PWM3,2,Pin_2*%
%TO.N,5V*%
X183180000Y-100330000D03*
%TO.P,PWM3,3,Pin_3*%
%TO.N,GND*%
X184180000Y-100330000D03*
%TD*%
D23*
%TO.P,R2,1*%
%TO.N,SCL*%
X181400000Y-113000000D03*
%TO.P,R2,2*%
%TO.N,Net-(U5-GPIO8)*%
X182040000Y-113000000D03*
%TD*%
D24*
%TO.P,C3,1*%
%TO.N,GND*%
X172960000Y-119420000D03*
%TO.P,C3,2*%
%TO.N,3V3*%
X173920000Y-119420000D03*
%TD*%
D25*
%TO.P,C2,1*%
%TO.N,Net-(U2-REGOUT)*%
X173890000Y-122000000D03*
%TO.P,C2,2*%
%TO.N,GND*%
X172930000Y-122000000D03*
%TD*%
D26*
%TO.P,J1,A1,GND*%
%TO.N,GND*%
X147160000Y-102470000D03*
%TO.P,J1,A4,VBUS*%
%TO.N,5V*%
X147160000Y-103270000D03*
D27*
%TO.P,J1,A5,CC1*%
%TO.N,Net-(J1-CC1)*%
X147160000Y-104420000D03*
%TO.P,J1,A6,D+*%
%TO.N,USB_D+*%
X147160000Y-105420000D03*
%TO.P,J1,A7,D-*%
%TO.N,USB_D-*%
X147160000Y-105920000D03*
%TO.P,J1,A8,SBU1*%
%TO.N,unconnected-(J1-SBU1-PadA8)*%
X147160000Y-106920000D03*
D26*
%TO.P,J1,A9,VBUS*%
%TO.N,5V*%
X147160000Y-108070000D03*
%TO.P,J1,A12,GND*%
%TO.N,GND*%
X147160000Y-108870000D03*
%TO.P,J1,B1,GND*%
X147160000Y-108870000D03*
%TO.P,J1,B4,VBUS*%
%TO.N,5V*%
X147160000Y-108070000D03*
D27*
%TO.P,J1,B5,CC2*%
%TO.N,Net-(J1-CC2)*%
X147160000Y-107420000D03*
%TO.P,J1,B6,D+*%
%TO.N,unconnected-(J1-D+-PadB6)*%
X147160000Y-106420000D03*
%TO.P,J1,B7,D-*%
%TO.N,unconnected-(J1-D--PadB7)*%
X147160000Y-104920000D03*
%TO.P,J1,B8,SBU2*%
%TO.N,unconnected-(J1-SBU2-PadB8)*%
X147160000Y-103920000D03*
D26*
%TO.P,J1,B9,VBUS*%
%TO.N,5V*%
X147160000Y-103270000D03*
%TO.P,J1,B12,GND*%
%TO.N,GND*%
X147160000Y-102470000D03*
D28*
%TO.P,J1,S1,SHIELD*%
X146585000Y-101350000D03*
D29*
X142405000Y-101350000D03*
D28*
X146585000Y-109990000D03*
D29*
X142405000Y-109990000D03*
%TD*%
D25*
%TO.P,C1,1*%
%TO.N,3V3*%
X173960000Y-116600000D03*
%TO.P,C1,2*%
%TO.N,GND*%
X173000000Y-116600000D03*
%TD*%
D14*
%TO.P,PWM2,1,Pin_1*%
%TO.N,PWM2*%
X182180000Y-103660000D03*
D15*
%TO.P,PWM2,2,Pin_2*%
%TO.N,5V*%
X183180000Y-103660000D03*
%TO.P,PWM2,3,Pin_3*%
%TO.N,GND*%
X184180000Y-103660000D03*
%TD*%
%TO.P,12VBattery1,2,Pin_2*%
%TO.N,GND*%
X106090000Y-105860000D03*
D14*
%TO.P,12VBattery1,1,Pin_1*%
%TO.N,12V*%
X106090000Y-106860000D03*
%TD*%
D22*
%TO.P,R3,2*%
%TO.N,VBUS*%
X116680000Y-104410000D03*
%TO.P,R3,1*%
%TO.N,Net-(P1-CC)*%
X116680000Y-105050000D03*
%TD*%
D30*
%TO.P,U1,1,VIN*%
%TO.N,12V*%
X110890000Y-108780000D03*
%TO.P,U1,2,OUT*%
%TO.N,VBUS*%
X112160000Y-108780000D03*
%TO.P,U1,3,FB*%
%TO.N,unconnected-(U1-FB-Pad3)*%
X113430000Y-108780000D03*
%TO.P,U1,4,~{EN}*%
%TO.N,GND*%
X114700000Y-108780000D03*
%TO.P,U1,5,GND*%
X114700000Y-103830000D03*
%TO.P,U1,6,GND*%
X113430000Y-103830000D03*
%TO.P,U1,7,GND*%
X112160000Y-103830000D03*
%TO.P,U1,8,GND*%
X110890000Y-103830000D03*
%TD*%
D31*
%TO.P,P1,*%
%TO.N,*%
X120547517Y-109475452D03*
X120547517Y-102665452D03*
D32*
%TO.P,P1,A1,GND*%
%TO.N,GND*%
X120647517Y-103245452D03*
D33*
%TO.P,P1,A2*%
%TO.N,N/C*%
X120647517Y-103820452D03*
%TO.P,P1,A3*%
X120647517Y-104320452D03*
%TO.P,P1,A4,VBUS*%
%TO.N,VBUS*%
X120647517Y-104820452D03*
%TO.P,P1,A5,CC*%
%TO.N,Net-(P1-CC)*%
X120647517Y-105320452D03*
%TO.P,P1,A6,D+*%
%TO.N,unconnected-(P1-D+-PadA6)*%
X120647517Y-105820452D03*
%TO.P,P1,A7,D-*%
%TO.N,unconnected-(P1-D--PadA7)*%
X120647517Y-106320452D03*
%TO.P,P1,A8*%
%TO.N,N/C*%
X120647517Y-106820452D03*
%TO.P,P1,A9,VBUS*%
%TO.N,VBUS*%
X120647517Y-107320452D03*
%TO.P,P1,A10*%
%TO.N,N/C*%
X120647517Y-107820452D03*
%TO.P,P1,A11*%
X120647517Y-108320452D03*
D32*
%TO.P,P1,A12,GND*%
%TO.N,GND*%
X120647517Y-108895452D03*
%TD*%
D34*
%TO.N,Net-(J1-CC2)*%
X148140397Y-107311007D03*
X150730000Y-104720000D03*
%TO.N,5V*%
X174470000Y-109350000D03*
%TO.N,3V3*%
X175840000Y-125850000D03*
%TO.N,5V*%
X154060000Y-109340000D03*
%TO.N,Net-(U5-GPIO7)*%
X179710000Y-115080000D03*
%TO.N,GND*%
X164660000Y-123820000D03*
X171000000Y-123890000D03*
%TO.N,Net-(U5-GPIO7)*%
X163535000Y-116200000D03*
%TO.N,3V3*%
X152210000Y-116520000D03*
%TO.N,USB_D-*%
X148900000Y-107060000D03*
X149701159Y-106138841D03*
%TO.N,Net-(U5-GPIO8)*%
X162530000Y-116720000D03*
%TO.N,3V3*%
X174590000Y-119510000D03*
%TO.N,Net-(U5-GPIO8)*%
X171590000Y-114780000D03*
%TO.N,3V3*%
X167310000Y-116940000D03*
%TO.N,5V*%
X150990000Y-109330000D03*
%TO.N,SDA*%
X180410000Y-111860000D03*
%TO.N,GND*%
X180374117Y-122925096D03*
X178198557Y-120875000D03*
X159260000Y-121240000D03*
%TO.N,SDA*%
X176730000Y-121275000D03*
X180120000Y-110180000D03*
%TO.N,SCL*%
X179910000Y-112840000D03*
%TO.N,3V3*%
X180500000Y-125520000D03*
%TO.N,5V*%
X163535000Y-109350000D03*
%TO.N,VBUS*%
X115920000Y-107560000D03*
%TO.N,GND*%
X119365000Y-108901200D03*
X119381654Y-103252146D03*
%TO.N,VBUS*%
X114125000Y-107030000D03*
%TD*%
D35*
%TO.N,GND*%
X184180000Y-90340000D02*
X184180000Y-93670000D01*
%TO.N,Net-(U2-REGOUT)*%
X176973978Y-126426000D02*
X178210000Y-125189978D01*
X173890000Y-122000000D02*
X173890000Y-124714588D01*
%TO.N,3V3*%
X173960000Y-116600000D02*
X173960000Y-119380000D01*
%TO.N,GND*%
X172930000Y-122000000D02*
X172930000Y-121950000D01*
X172930000Y-121950000D02*
X172960000Y-121920000D01*
%TO.N,3V3*%
X173960000Y-119380000D02*
X173920000Y-119420000D01*
%TO.N,GND*%
X172960000Y-121920000D02*
X172960000Y-120700000D01*
%TO.N,5V*%
X183180000Y-106990000D02*
X183180000Y-103660000D01*
X183180000Y-100330000D02*
X183180000Y-97000000D01*
X183180000Y-103660000D02*
X183180000Y-100330000D01*
%TO.N,GND*%
X184180000Y-103660000D02*
X184180000Y-100330000D01*
%TO.N,SCL*%
X179910000Y-112840000D02*
X180070000Y-113000000D01*
%TO.N,SDA*%
X181190000Y-111250000D02*
X180120000Y-110180000D01*
X181400000Y-111250000D02*
X181190000Y-111250000D01*
%TO.N,5V*%
X183180000Y-100330000D02*
X183180000Y-93670000D01*
%TO.N,SCL*%
X180070000Y-113000000D02*
X181400000Y-113000000D01*
%TO.N,3V3*%
X169163580Y-116014000D02*
X173374000Y-116014000D01*
X167710000Y-117467580D02*
X169163580Y-116014000D01*
X167310000Y-116940000D02*
X167310000Y-117930000D01*
X150680000Y-116520000D02*
X152210000Y-116520000D01*
%TO.N,Net-(U5-GPIO8)*%
X182040000Y-113124516D02*
X181688516Y-113476000D01*
%TO.N,USB_D-*%
X161597580Y-122780000D02*
X160736412Y-121918832D01*
X162060000Y-122780000D02*
X161597580Y-122780000D01*
%TO.N,GND*%
X158165000Y-119045000D02*
X155615000Y-119045000D01*
X159260000Y-121240000D02*
X159260000Y-120140000D01*
%TO.N,Net-(U2-REGOUT)*%
X178210000Y-125189978D02*
X178210000Y-124785000D01*
%TO.N,Net-(U5-GPIO8)*%
X162530000Y-116720000D02*
X162562420Y-116720000D01*
%TO.N,3V3*%
X150665000Y-116505000D02*
X150680000Y-116520000D01*
%TO.N,USB_D+*%
X160385412Y-123180000D02*
X160385412Y-117636268D01*
%TO.N,Net-(U5-GPIO8)*%
X181688516Y-113476000D02*
X172894000Y-113476000D01*
%TO.N,USB_D-*%
X160736412Y-121918832D02*
X160736412Y-117174094D01*
%TO.N,GND*%
X184180000Y-106990000D02*
X184180000Y-103660000D01*
%TO.N,Net-(U2-REGOUT)*%
X175601412Y-126426000D02*
X176973978Y-126426000D01*
%TO.N,USB_D-*%
X160736412Y-117174094D02*
X149701159Y-106138841D01*
%TO.N,USB_D+*%
X162060000Y-123180000D02*
X160385412Y-123180000D01*
%TO.N,Net-(U5-GPIO8)*%
X162562420Y-116720000D02*
X163310000Y-117467580D01*
%TO.N,USB_D+*%
X160385412Y-117636268D02*
X148169144Y-105420000D01*
%TO.N,GND*%
X184180000Y-93670000D02*
X184180000Y-100330000D01*
%TO.N,Net-(U5-GPIO8)*%
X172894000Y-113476000D02*
X171590000Y-114780000D01*
X182040000Y-113000000D02*
X182040000Y-113124516D01*
%TO.N,USB_D+*%
X148169144Y-105420000D02*
X147160000Y-105420000D01*
%TO.N,GND*%
X159260000Y-120140000D02*
X158165000Y-119045000D01*
%TO.N,USB_D-*%
X147760000Y-105920000D02*
X147160000Y-105920000D01*
X148900000Y-107060000D02*
X147760000Y-105920000D01*
%TO.N,GND*%
X150760000Y-97472500D02*
X159080000Y-89152500D01*
%TO.N,5V*%
X183180000Y-106990000D02*
X183180000Y-107392000D01*
%TO.N,Net-(U5-GPIO7)*%
X182546000Y-113258516D02*
X182546000Y-111756000D01*
X163710000Y-117930000D02*
X163710000Y-116315000D01*
%TO.N,Net-(U2-REGOUT)*%
X173890000Y-124714588D02*
X175601412Y-126426000D01*
%TO.N,Net-(U5-GPIO7)*%
X179710000Y-115080000D02*
X180724516Y-115080000D01*
%TO.N,PWM3*%
X165310000Y-117930000D02*
X165310000Y-114700000D01*
%TO.N,Net-(J1-CC2)*%
X147160000Y-107420000D02*
X148031404Y-107420000D01*
%TO.N,3V3*%
X173920000Y-119420000D02*
X174500000Y-119420000D01*
%TO.N,GND*%
X184180000Y-93670000D02*
X184180000Y-97000000D01*
%TO.N,Net-(U5-GPIO7)*%
X180724516Y-115080000D02*
X182546000Y-113258516D01*
X163710000Y-116315000D02*
X163595000Y-116200000D01*
X163595000Y-116200000D02*
X163535000Y-116200000D01*
%TO.N,3V3*%
X177410000Y-125217978D02*
X177410000Y-124785000D01*
%TO.N,PWM2*%
X165710000Y-115130000D02*
X177180000Y-103660000D01*
X165710000Y-117930000D02*
X165710000Y-115130000D01*
%TO.N,GND*%
X150760000Y-103230000D02*
X150760000Y-97472500D01*
%TO.N,5V*%
X149920806Y-110399194D02*
X149920806Y-110449194D01*
%TO.N,Net-(J1-CC2)*%
X150730000Y-103900000D02*
X150760000Y-103870000D01*
%TO.N,Net-(J1-CC1)*%
X148460000Y-104420000D02*
X147160000Y-104420000D01*
%TO.N,3V3*%
X175840000Y-125850000D02*
X176777978Y-125850000D01*
%TO.N,GND*%
X148250000Y-102470000D02*
X149010000Y-103230000D01*
%TO.N,5V*%
X149920806Y-110449194D02*
X150114000Y-110642388D01*
X154070000Y-109350000D02*
X154060000Y-109340000D01*
%TO.N,GND*%
X149010000Y-103230000D02*
X150760000Y-103230000D01*
X147160000Y-109415000D02*
X146585000Y-109990000D01*
%TO.N,PWM3*%
X179680000Y-100330000D02*
X182180000Y-100330000D01*
%TO.N,PWM1*%
X166110000Y-117930000D02*
X166110000Y-116829024D01*
%TO.N,3V3*%
X176777978Y-125850000D02*
X177410000Y-125217978D01*
%TO.N,5V*%
X150990000Y-109330000D02*
X149920806Y-110399194D01*
%TO.N,3V3*%
X173374000Y-116014000D02*
X173960000Y-116600000D01*
%TO.N,5V*%
X181222000Y-109350000D02*
X174470000Y-109350000D01*
%TO.N,PWM3*%
X165310000Y-114700000D02*
X179680000Y-100330000D01*
%TO.N,GND*%
X146585000Y-101350000D02*
X146585000Y-101895000D01*
%TO.N,Net-(J1-CC2)*%
X148031404Y-107420000D02*
X148140397Y-107311007D01*
%TO.N,GND*%
X147160000Y-102470000D02*
X148250000Y-102470000D01*
X147160000Y-108870000D02*
X147160000Y-109415000D01*
%TO.N,PWM1*%
X166110000Y-116829024D02*
X175949024Y-106990000D01*
%TO.N,GND*%
X146585000Y-101895000D02*
X147160000Y-102470000D01*
%TO.N,Net-(J1-CC2)*%
X150730000Y-104720000D02*
X150730000Y-103900000D01*
%TO.N,3V3*%
X174500000Y-119420000D02*
X174590000Y-119510000D01*
%TO.N,5V*%
X183180000Y-107392000D02*
X181222000Y-109350000D01*
%TO.N,GND*%
X171040000Y-123890000D02*
X172930000Y-122000000D01*
X173000000Y-116600000D02*
X173000000Y-119380000D01*
X146585000Y-115939999D02*
X146585000Y-109990000D01*
X164660000Y-123820000D02*
X164660000Y-122230000D01*
X164660000Y-122230000D02*
X165510000Y-121380000D01*
X155615000Y-117775000D02*
X155615000Y-116505000D01*
X149690001Y-119045000D02*
X146585000Y-115939999D01*
%TO.N,3V3*%
X167710000Y-117930000D02*
X167710000Y-117467580D01*
%TO.N,5V*%
X147160000Y-108070000D02*
X147541612Y-108070000D01*
X150114000Y-110642388D02*
X150114000Y-114684000D01*
X150114000Y-114684000D02*
X150665000Y-115235000D01*
%TO.N,ACCELINT*%
X167772412Y-115663000D02*
X166510000Y-116925412D01*
%TO.N,PWM6*%
X164110000Y-108410000D02*
X182180000Y-90340000D01*
%TO.N,PWM1*%
X175949024Y-106990000D02*
X182180000Y-106990000D01*
%TO.N,5V*%
X147541612Y-108070000D02*
X149920806Y-110449194D01*
%TO.N,GND*%
X150665000Y-119045000D02*
X149690001Y-119045000D01*
X150665000Y-119045000D02*
X155615000Y-119045000D01*
%TO.N,ACCELINT*%
X173925194Y-115663000D02*
X167772412Y-115663000D01*
%TO.N,GND*%
X179959978Y-122240000D02*
X179555000Y-122240000D01*
X155615000Y-116505000D02*
X155615000Y-115235000D01*
X180374117Y-122925096D02*
X180374117Y-122654139D01*
%TO.N,Net-(J1-CC1)*%
X149010000Y-103870000D02*
X148460000Y-104420000D01*
%TO.N,ACCELINT*%
X181076000Y-125758588D02*
X181076000Y-122813806D01*
%TO.N,GND*%
X173000000Y-119380000D02*
X172960000Y-119420000D01*
%TO.N,PWM4*%
X164910000Y-117930000D02*
X164910000Y-114270000D01*
%TO.N,GND*%
X172960000Y-120700000D02*
X172960000Y-119420000D01*
X171000000Y-123890000D02*
X171040000Y-123890000D01*
%TO.N,ACCELINT*%
X166510000Y-116925412D02*
X166510000Y-117930000D01*
X179516000Y-126096000D02*
X180738588Y-126096000D01*
%TO.N,GND*%
X180374117Y-122654139D02*
X179959978Y-122240000D01*
%TO.N,PWM5*%
X164510000Y-111340000D02*
X182180000Y-93670000D01*
%TO.N,3V3*%
X167310000Y-117930000D02*
X167710000Y-117930000D01*
%TO.N,Net-(U5-GPIO7)*%
X182546000Y-111756000D02*
X182040000Y-111250000D01*
%TO.N,Net-(U5-GPIO8)*%
X163310000Y-117467580D02*
X163310000Y-117930000D01*
%TO.N,SDA*%
X177010000Y-121555000D02*
X176730000Y-121275000D01*
%TO.N,PWM2*%
X177180000Y-103660000D02*
X182180000Y-103660000D01*
%TO.N,3V3*%
X180500000Y-125520000D02*
X180500000Y-125185000D01*
%TO.N,ACCELINT*%
X180738588Y-126096000D02*
X181076000Y-125758588D01*
%TO.N,GND*%
X155615000Y-119045000D02*
X155615000Y-117775000D01*
%TO.N,3V3*%
X180500000Y-125185000D02*
X179555000Y-124240000D01*
%TO.N,SDA*%
X180790000Y-111860000D02*
X181400000Y-111250000D01*
%TO.N,PWM4*%
X164910000Y-114270000D02*
X182180000Y-97000000D01*
%TO.N,PWM5*%
X164510000Y-117930000D02*
X164510000Y-111340000D01*
%TO.N,GND*%
X178610000Y-121286443D02*
X178198557Y-120875000D01*
%TO.N,SDA*%
X180410000Y-111860000D02*
X180790000Y-111860000D01*
%TO.N,ACCELINT*%
X179010000Y-124785000D02*
X179010000Y-125590000D01*
%TO.N,GND*%
X172960000Y-120700000D02*
X178019978Y-120700000D01*
X178610000Y-121695000D02*
X178610000Y-121286443D01*
%TO.N,5V*%
X163535000Y-109350000D02*
X154070000Y-109350000D01*
%TO.N,GND*%
X178610000Y-121290022D02*
X178610000Y-121695000D01*
%TO.N,ACCELINT*%
X179010000Y-125590000D02*
X179516000Y-126096000D01*
X181076000Y-122813806D02*
X173925194Y-115663000D01*
%TO.N,PWM6*%
X164110000Y-117930000D02*
X164110000Y-108410000D01*
%TO.N,GND*%
X178019978Y-120700000D02*
X178610000Y-121290022D01*
%TO.N,SDA*%
X177010000Y-121695000D02*
X177010000Y-121555000D01*
%TO.N,5V*%
X183180000Y-100330000D02*
X183180000Y-90340000D01*
%TO.N,GND*%
X114700000Y-108780000D02*
X119243800Y-108780000D01*
%TO.N,VBUS*%
X115920000Y-107560000D02*
X115920000Y-105622516D01*
%TO.N,GND*%
X120640823Y-103252146D02*
X120647517Y-103245452D01*
X120647517Y-108895452D02*
X119370748Y-108895452D01*
%TO.N,VBUS*%
X118185936Y-107320452D02*
X120647517Y-107320452D01*
X116204000Y-105338516D02*
X118185936Y-107320452D01*
X112160000Y-107805001D02*
X112935001Y-107030000D01*
X116555484Y-104410000D02*
X116204000Y-104761484D01*
X116204000Y-104761484D02*
X116204000Y-105338516D01*
%TO.N,GND*%
X119243800Y-108780000D02*
X119365000Y-108901200D01*
%TO.N,VBUS*%
X116680000Y-104410000D02*
X116555484Y-104410000D01*
X116680000Y-104410000D02*
X119280065Y-104410000D01*
X119690517Y-104820452D02*
X120647517Y-104820452D01*
%TO.N,GND*%
X108860000Y-105860000D02*
X106090000Y-105860000D01*
X110890000Y-103830000D02*
X108860000Y-105860000D01*
%TO.N,Net-(P1-CC)*%
X116950452Y-105320452D02*
X120647517Y-105320452D01*
%TO.N,VBUS*%
X112935001Y-107030000D02*
X114125000Y-107030000D01*
%TO.N,12V*%
X106090000Y-106860000D02*
X108970000Y-106860000D01*
X108970000Y-106860000D02*
X110890000Y-108780000D01*
%TO.N,VBUS*%
X112160000Y-108780000D02*
X112160000Y-107805001D01*
X115920000Y-105622516D02*
X116204000Y-105338516D01*
%TO.N,GND*%
X119370748Y-108895452D02*
X119365000Y-108901200D01*
%TO.N,VBUS*%
X119280065Y-104410000D02*
X119690517Y-104820452D01*
%TO.N,GND*%
X119381654Y-103252146D02*
X120640823Y-103252146D01*
X110890000Y-103830000D02*
X112160000Y-103830000D01*
X114700000Y-103830000D02*
X114700000Y-108780000D01*
X112160000Y-103830000D02*
X113430000Y-103830000D01*
X113430000Y-103830000D02*
X114700000Y-103830000D01*
%TO.N,Net-(P1-CC)*%
X116680000Y-105050000D02*
X116950452Y-105320452D01*
%TD*%
M02*
