M48
; DRILL file {KiCad 9.0.3} date 2025-07-28T19:10:50+0200
; FORMAT={-:-/ absolute / metric / decimal}
; #@! TF.CreationDate,2025-07-28T19:10:50+02:00
; #@! TF.GenerationSoftware,Kicad,Pcbnew,9.0.3
; #@! TF.FileFunction,Plated,1,2,PTH
FMAT,2
METRIC
; #@! TA.AperFunction,Plated,PTH,ViaDrill
T1C0.300
; #@! TA.AperFunction,Plated,PTH,ComponentDrill
T2C0.500
; #@! TA.AperFunction,Plated,PTH,ComponentDrill
T3C0.600
; #@! TA.AperFunction,Plated,PTH,ComponentDrill
T4C1.000
; #@! TA.AperFunction,Plated,PTH,ComponentDrill
T5C2.000
%
G90
G05
T1
X114.125Y-107.03
X115.92Y-107.56
X119.365Y-108.901
X119.382Y-103.252
X148.14Y-107.311
X148.9Y-107.06
X149.701Y-106.139
X150.73Y-104.72
X150.99Y-109.33
X152.21Y-116.52
X154.06Y-109.34
X159.26Y-121.24
X162.53Y-116.72
X163.535Y-109.35
X163.535Y-116.2
X164.66Y-123.82
X167.31Y-116.94
X171.0Y-123.89
X171.59Y-114.78
X174.47Y-109.35
X174.59Y-119.51
X175.84Y-125.85
X176.73Y-121.275
X178.199Y-120.875
X179.71Y-115.08
X179.91Y-112.84
X180.12Y-110.18
X180.374Y-122.925
X180.41Y-111.86
X180.5Y-125.52
T2
X106.09Y-105.86
X106.09Y-106.86
X182.18Y-90.34
X182.18Y-93.67
X182.18Y-97.0
X182.18Y-100.33
X182.18Y-103.66
X182.18Y-106.99
X183.18Y-90.34
X183.18Y-93.67
X183.18Y-97.0
X183.18Y-100.33
X183.18Y-103.66
X183.18Y-106.99
X184.18Y-90.34
X184.18Y-93.67
X184.18Y-97.0
X184.18Y-100.33
X184.18Y-103.66
X184.18Y-106.99
T4
X159.08Y-89.152
X161.62Y-89.152
X164.16Y-89.152
X166.7Y-89.152
T5
X151.89Y-89.652
X151.89Y-111.652
X173.89Y-89.652
X173.89Y-111.652
T3
G00X142.805Y-101.35
M15
G01X142.005Y-101.35
M16
G05
G00X142.805Y-109.99
M15
G01X142.005Y-109.99
M16
G05
G00X147.135Y-101.35
M15
G01X146.035Y-101.35
M16
G05
G00X147.135Y-109.99
M15
G01X146.035Y-109.99
M16
G05
M30
