%TF.GenerationSoftware,KiCad,Pcbnew,9.0.3*%
%TF.CreationDate,2025-07-28T19:10:52+02:00*%
%TF.ProjectId,hermes,6865726d-6573-42e6-9b69-6361645f7063,rev?*%
%TF.SameCoordinates,Original*%
%TF.FileFunction,Legend,Top*%
%TF.FilePolarity,Positive*%
%FSLAX46Y46*%
G04 Gerber Fmt 4.6, Leading zero omitted, Abs format (unit mm)*
G04 Created by KiCad (PCBNEW 9.0.3) date 2025-07-28 19:10:52*
%MOMM*%
%LPD*%
G01*
G04 APERTURE LIST*
%ADD10C,0.075000*%
%ADD11C,0.150000*%
%ADD12C,0.000000*%
%ADD13C,0.120000*%
%ADD14C,0.200000*%
%ADD15C,0.127000*%
G04 APERTURE END LIST*
D10*
X184067913Y-89133671D02*
X184039342Y-89119385D01*
X184039342Y-89119385D02*
X183996484Y-89119385D01*
X183996484Y-89119385D02*
X183953627Y-89133671D01*
X183953627Y-89133671D02*
X183925056Y-89162242D01*
X183925056Y-89162242D02*
X183910770Y-89190814D01*
X183910770Y-89190814D02*
X183896484Y-89247957D01*
X183896484Y-89247957D02*
X183896484Y-89290814D01*
X183896484Y-89290814D02*
X183910770Y-89347957D01*
X183910770Y-89347957D02*
X183925056Y-89376528D01*
X183925056Y-89376528D02*
X183953627Y-89405100D01*
X183953627Y-89405100D02*
X183996484Y-89419385D01*
X183996484Y-89419385D02*
X184025056Y-89419385D01*
X184025056Y-89419385D02*
X184067913Y-89405100D01*
X184067913Y-89405100D02*
X184082199Y-89390814D01*
X184082199Y-89390814D02*
X184082199Y-89290814D01*
X184082199Y-89290814D02*
X184025056Y-89290814D01*
X184210770Y-89419385D02*
X184210770Y-89119385D01*
X184210770Y-89119385D02*
X184382199Y-89419385D01*
X184382199Y-89419385D02*
X184382199Y-89119385D01*
X184525056Y-89419385D02*
X184525056Y-89119385D01*
X184525056Y-89119385D02*
X184596485Y-89119385D01*
X184596485Y-89119385D02*
X184639342Y-89133671D01*
X184639342Y-89133671D02*
X184667913Y-89162242D01*
X184667913Y-89162242D02*
X184682199Y-89190814D01*
X184682199Y-89190814D02*
X184696485Y-89247957D01*
X184696485Y-89247957D02*
X184696485Y-89290814D01*
X184696485Y-89290814D02*
X184682199Y-89347957D01*
X184682199Y-89347957D02*
X184667913Y-89376528D01*
X184667913Y-89376528D02*
X184639342Y-89405100D01*
X184639342Y-89405100D02*
X184596485Y-89419385D01*
X184596485Y-89419385D02*
X184525056Y-89419385D01*
X181750770Y-89409385D02*
X181750770Y-89109385D01*
X181750770Y-89109385D02*
X181865056Y-89109385D01*
X181865056Y-89109385D02*
X181893627Y-89123671D01*
X181893627Y-89123671D02*
X181907913Y-89137957D01*
X181907913Y-89137957D02*
X181922199Y-89166528D01*
X181922199Y-89166528D02*
X181922199Y-89209385D01*
X181922199Y-89209385D02*
X181907913Y-89237957D01*
X181907913Y-89237957D02*
X181893627Y-89252242D01*
X181893627Y-89252242D02*
X181865056Y-89266528D01*
X181865056Y-89266528D02*
X181750770Y-89266528D01*
X182022199Y-89109385D02*
X182093627Y-89409385D01*
X182093627Y-89409385D02*
X182150770Y-89195100D01*
X182150770Y-89195100D02*
X182207913Y-89409385D01*
X182207913Y-89409385D02*
X182279342Y-89109385D01*
X182393627Y-89409385D02*
X182393627Y-89109385D01*
X182393627Y-89109385D02*
X182493627Y-89323671D01*
X182493627Y-89323671D02*
X182593627Y-89109385D01*
X182593627Y-89109385D02*
X182593627Y-89409385D01*
X183193627Y-89109385D02*
X183050770Y-89109385D01*
X183050770Y-89109385D02*
X183036484Y-89252242D01*
X183036484Y-89252242D02*
X183050770Y-89237957D01*
X183050770Y-89237957D02*
X183079342Y-89223671D01*
X183079342Y-89223671D02*
X183150770Y-89223671D01*
X183150770Y-89223671D02*
X183179342Y-89237957D01*
X183179342Y-89237957D02*
X183193627Y-89252242D01*
X183193627Y-89252242D02*
X183207913Y-89280814D01*
X183207913Y-89280814D02*
X183207913Y-89352242D01*
X183207913Y-89352242D02*
X183193627Y-89380814D01*
X183193627Y-89380814D02*
X183179342Y-89395100D01*
X183179342Y-89395100D02*
X183150770Y-89409385D01*
X183150770Y-89409385D02*
X183079342Y-89409385D01*
X183079342Y-89409385D02*
X183050770Y-89395100D01*
X183050770Y-89395100D02*
X183036484Y-89380814D01*
X183293627Y-89109385D02*
X183393627Y-89409385D01*
X183393627Y-89409385D02*
X183493627Y-89109385D01*
X105827913Y-104723671D02*
X105799342Y-104709385D01*
X105799342Y-104709385D02*
X105756484Y-104709385D01*
X105756484Y-104709385D02*
X105713627Y-104723671D01*
X105713627Y-104723671D02*
X105685056Y-104752242D01*
X105685056Y-104752242D02*
X105670770Y-104780814D01*
X105670770Y-104780814D02*
X105656484Y-104837957D01*
X105656484Y-104837957D02*
X105656484Y-104880814D01*
X105656484Y-104880814D02*
X105670770Y-104937957D01*
X105670770Y-104937957D02*
X105685056Y-104966528D01*
X105685056Y-104966528D02*
X105713627Y-104995100D01*
X105713627Y-104995100D02*
X105756484Y-105009385D01*
X105756484Y-105009385D02*
X105785056Y-105009385D01*
X105785056Y-105009385D02*
X105827913Y-104995100D01*
X105827913Y-104995100D02*
X105842199Y-104980814D01*
X105842199Y-104980814D02*
X105842199Y-104880814D01*
X105842199Y-104880814D02*
X105785056Y-104880814D01*
X105970770Y-105009385D02*
X105970770Y-104709385D01*
X105970770Y-104709385D02*
X106142199Y-105009385D01*
X106142199Y-105009385D02*
X106142199Y-104709385D01*
X106285056Y-105009385D02*
X106285056Y-104709385D01*
X106285056Y-104709385D02*
X106356485Y-104709385D01*
X106356485Y-104709385D02*
X106399342Y-104723671D01*
X106399342Y-104723671D02*
X106427913Y-104752242D01*
X106427913Y-104752242D02*
X106442199Y-104780814D01*
X106442199Y-104780814D02*
X106456485Y-104837957D01*
X106456485Y-104837957D02*
X106456485Y-104880814D01*
X106456485Y-104880814D02*
X106442199Y-104937957D01*
X106442199Y-104937957D02*
X106427913Y-104966528D01*
X106427913Y-104966528D02*
X106399342Y-104995100D01*
X106399342Y-104995100D02*
X106356485Y-105009385D01*
X106356485Y-105009385D02*
X106285056Y-105009385D01*
X105917913Y-108089385D02*
X105746484Y-108089385D01*
X105832199Y-108089385D02*
X105832199Y-107789385D01*
X105832199Y-107789385D02*
X105803627Y-107832242D01*
X105803627Y-107832242D02*
X105775056Y-107860814D01*
X105775056Y-107860814D02*
X105746484Y-107875100D01*
X106032198Y-107817957D02*
X106046484Y-107803671D01*
X106046484Y-107803671D02*
X106075056Y-107789385D01*
X106075056Y-107789385D02*
X106146484Y-107789385D01*
X106146484Y-107789385D02*
X106175056Y-107803671D01*
X106175056Y-107803671D02*
X106189341Y-107817957D01*
X106189341Y-107817957D02*
X106203627Y-107846528D01*
X106203627Y-107846528D02*
X106203627Y-107875100D01*
X106203627Y-107875100D02*
X106189341Y-107917957D01*
X106189341Y-107917957D02*
X106017913Y-108089385D01*
X106017913Y-108089385D02*
X106203627Y-108089385D01*
X106289341Y-107789385D02*
X106389341Y-108089385D01*
X106389341Y-108089385D02*
X106489341Y-107789385D01*
D11*
X152378095Y-115084819D02*
X152378095Y-115894342D01*
X152378095Y-115894342D02*
X152425714Y-115989580D01*
X152425714Y-115989580D02*
X152473333Y-116037200D01*
X152473333Y-116037200D02*
X152568571Y-116084819D01*
X152568571Y-116084819D02*
X152759047Y-116084819D01*
X152759047Y-116084819D02*
X152854285Y-116037200D01*
X152854285Y-116037200D02*
X152901904Y-115989580D01*
X152901904Y-115989580D02*
X152949523Y-115894342D01*
X152949523Y-115894342D02*
X152949523Y-115084819D01*
X153854285Y-115418152D02*
X153854285Y-116084819D01*
X153616190Y-115037200D02*
X153378095Y-115751485D01*
X153378095Y-115751485D02*
X153997142Y-115751485D01*
X162128095Y-100134819D02*
X162128095Y-100944342D01*
X162128095Y-100944342D02*
X162175714Y-101039580D01*
X162175714Y-101039580D02*
X162223333Y-101087200D01*
X162223333Y-101087200D02*
X162318571Y-101134819D01*
X162318571Y-101134819D02*
X162509047Y-101134819D01*
X162509047Y-101134819D02*
X162604285Y-101087200D01*
X162604285Y-101087200D02*
X162651904Y-101039580D01*
X162651904Y-101039580D02*
X162699523Y-100944342D01*
X162699523Y-100944342D02*
X162699523Y-100134819D01*
X163080476Y-100134819D02*
X163699523Y-100134819D01*
X163699523Y-100134819D02*
X163366190Y-100515771D01*
X163366190Y-100515771D02*
X163509047Y-100515771D01*
X163509047Y-100515771D02*
X163604285Y-100563390D01*
X163604285Y-100563390D02*
X163651904Y-100611009D01*
X163651904Y-100611009D02*
X163699523Y-100706247D01*
X163699523Y-100706247D02*
X163699523Y-100944342D01*
X163699523Y-100944342D02*
X163651904Y-101039580D01*
X163651904Y-101039580D02*
X163604285Y-101087200D01*
X163604285Y-101087200D02*
X163509047Y-101134819D01*
X163509047Y-101134819D02*
X163223333Y-101134819D01*
X163223333Y-101134819D02*
X163128095Y-101087200D01*
X163128095Y-101087200D02*
X163080476Y-101039580D01*
X177009048Y-90724819D02*
X177009048Y-89724819D01*
X177009048Y-89724819D02*
X177390000Y-89724819D01*
X177390000Y-89724819D02*
X177485238Y-89772438D01*
X177485238Y-89772438D02*
X177532857Y-89820057D01*
X177532857Y-89820057D02*
X177580476Y-89915295D01*
X177580476Y-89915295D02*
X177580476Y-90058152D01*
X177580476Y-90058152D02*
X177532857Y-90153390D01*
X177532857Y-90153390D02*
X177485238Y-90201009D01*
X177485238Y-90201009D02*
X177390000Y-90248628D01*
X177390000Y-90248628D02*
X177009048Y-90248628D01*
X177913810Y-89724819D02*
X178151905Y-90724819D01*
X178151905Y-90724819D02*
X178342381Y-90010533D01*
X178342381Y-90010533D02*
X178532857Y-90724819D01*
X178532857Y-90724819D02*
X178770953Y-89724819D01*
X179151905Y-90724819D02*
X179151905Y-89724819D01*
X179151905Y-89724819D02*
X179485238Y-90439104D01*
X179485238Y-90439104D02*
X179818571Y-89724819D01*
X179818571Y-89724819D02*
X179818571Y-90724819D01*
X180723333Y-89724819D02*
X180532857Y-89724819D01*
X180532857Y-89724819D02*
X180437619Y-89772438D01*
X180437619Y-89772438D02*
X180390000Y-89820057D01*
X180390000Y-89820057D02*
X180294762Y-89962914D01*
X180294762Y-89962914D02*
X180247143Y-90153390D01*
X180247143Y-90153390D02*
X180247143Y-90534342D01*
X180247143Y-90534342D02*
X180294762Y-90629580D01*
X180294762Y-90629580D02*
X180342381Y-90677200D01*
X180342381Y-90677200D02*
X180437619Y-90724819D01*
X180437619Y-90724819D02*
X180628095Y-90724819D01*
X180628095Y-90724819D02*
X180723333Y-90677200D01*
X180723333Y-90677200D02*
X180770952Y-90629580D01*
X180770952Y-90629580D02*
X180818571Y-90534342D01*
X180818571Y-90534342D02*
X180818571Y-90296247D01*
X180818571Y-90296247D02*
X180770952Y-90201009D01*
X180770952Y-90201009D02*
X180723333Y-90153390D01*
X180723333Y-90153390D02*
X180628095Y-90105771D01*
X180628095Y-90105771D02*
X180437619Y-90105771D01*
X180437619Y-90105771D02*
X180342381Y-90153390D01*
X180342381Y-90153390D02*
X180294762Y-90201009D01*
X180294762Y-90201009D02*
X180247143Y-90296247D01*
X177009048Y-93904819D02*
X177009048Y-92904819D01*
X177009048Y-92904819D02*
X177390000Y-92904819D01*
X177390000Y-92904819D02*
X177485238Y-92952438D01*
X177485238Y-92952438D02*
X177532857Y-93000057D01*
X177532857Y-93000057D02*
X177580476Y-93095295D01*
X177580476Y-93095295D02*
X177580476Y-93238152D01*
X177580476Y-93238152D02*
X177532857Y-93333390D01*
X177532857Y-93333390D02*
X177485238Y-93381009D01*
X177485238Y-93381009D02*
X177390000Y-93428628D01*
X177390000Y-93428628D02*
X177009048Y-93428628D01*
X177913810Y-92904819D02*
X178151905Y-93904819D01*
X178151905Y-93904819D02*
X178342381Y-93190533D01*
X178342381Y-93190533D02*
X178532857Y-93904819D01*
X178532857Y-93904819D02*
X178770953Y-92904819D01*
X179151905Y-93904819D02*
X179151905Y-92904819D01*
X179151905Y-92904819D02*
X179485238Y-93619104D01*
X179485238Y-93619104D02*
X179818571Y-92904819D01*
X179818571Y-92904819D02*
X179818571Y-93904819D01*
X180770952Y-92904819D02*
X180294762Y-92904819D01*
X180294762Y-92904819D02*
X180247143Y-93381009D01*
X180247143Y-93381009D02*
X180294762Y-93333390D01*
X180294762Y-93333390D02*
X180390000Y-93285771D01*
X180390000Y-93285771D02*
X180628095Y-93285771D01*
X180628095Y-93285771D02*
X180723333Y-93333390D01*
X180723333Y-93333390D02*
X180770952Y-93381009D01*
X180770952Y-93381009D02*
X180818571Y-93476247D01*
X180818571Y-93476247D02*
X180818571Y-93714342D01*
X180818571Y-93714342D02*
X180770952Y-93809580D01*
X180770952Y-93809580D02*
X180723333Y-93857200D01*
X180723333Y-93857200D02*
X180628095Y-93904819D01*
X180628095Y-93904819D02*
X180390000Y-93904819D01*
X180390000Y-93904819D02*
X180294762Y-93857200D01*
X180294762Y-93857200D02*
X180247143Y-93809580D01*
X177923095Y-119809819D02*
X177923095Y-120619342D01*
X177923095Y-120619342D02*
X177970714Y-120714580D01*
X177970714Y-120714580D02*
X178018333Y-120762200D01*
X178018333Y-120762200D02*
X178113571Y-120809819D01*
X178113571Y-120809819D02*
X178304047Y-120809819D01*
X178304047Y-120809819D02*
X178399285Y-120762200D01*
X178399285Y-120762200D02*
X178446904Y-120714580D01*
X178446904Y-120714580D02*
X178494523Y-120619342D01*
X178494523Y-120619342D02*
X178494523Y-119809819D01*
X178923095Y-119905057D02*
X178970714Y-119857438D01*
X178970714Y-119857438D02*
X179065952Y-119809819D01*
X179065952Y-119809819D02*
X179304047Y-119809819D01*
X179304047Y-119809819D02*
X179399285Y-119857438D01*
X179399285Y-119857438D02*
X179446904Y-119905057D01*
X179446904Y-119905057D02*
X179494523Y-120000295D01*
X179494523Y-120000295D02*
X179494523Y-120095533D01*
X179494523Y-120095533D02*
X179446904Y-120238390D01*
X179446904Y-120238390D02*
X178875476Y-120809819D01*
X178875476Y-120809819D02*
X179494523Y-120809819D01*
X169764819Y-122141904D02*
X170574342Y-122141904D01*
X170574342Y-122141904D02*
X170669580Y-122094285D01*
X170669580Y-122094285D02*
X170717200Y-122046666D01*
X170717200Y-122046666D02*
X170764819Y-121951428D01*
X170764819Y-121951428D02*
X170764819Y-121760952D01*
X170764819Y-121760952D02*
X170717200Y-121665714D01*
X170717200Y-121665714D02*
X170669580Y-121618095D01*
X170669580Y-121618095D02*
X170574342Y-121570476D01*
X170574342Y-121570476D02*
X169764819Y-121570476D01*
X169764819Y-120618095D02*
X169764819Y-121094285D01*
X169764819Y-121094285D02*
X170241009Y-121141904D01*
X170241009Y-121141904D02*
X170193390Y-121094285D01*
X170193390Y-121094285D02*
X170145771Y-120999047D01*
X170145771Y-120999047D02*
X170145771Y-120760952D01*
X170145771Y-120760952D02*
X170193390Y-120665714D01*
X170193390Y-120665714D02*
X170241009Y-120618095D01*
X170241009Y-120618095D02*
X170336247Y-120570476D01*
X170336247Y-120570476D02*
X170574342Y-120570476D01*
X170574342Y-120570476D02*
X170669580Y-120618095D01*
X170669580Y-120618095D02*
X170717200Y-120665714D01*
X170717200Y-120665714D02*
X170764819Y-120760952D01*
X170764819Y-120760952D02*
X170764819Y-120999047D01*
X170764819Y-120999047D02*
X170717200Y-121094285D01*
X170717200Y-121094285D02*
X170669580Y-121141904D01*
X177009048Y-97484819D02*
X177009048Y-96484819D01*
X177009048Y-96484819D02*
X177390000Y-96484819D01*
X177390000Y-96484819D02*
X177485238Y-96532438D01*
X177485238Y-96532438D02*
X177532857Y-96580057D01*
X177532857Y-96580057D02*
X177580476Y-96675295D01*
X177580476Y-96675295D02*
X177580476Y-96818152D01*
X177580476Y-96818152D02*
X177532857Y-96913390D01*
X177532857Y-96913390D02*
X177485238Y-96961009D01*
X177485238Y-96961009D02*
X177390000Y-97008628D01*
X177390000Y-97008628D02*
X177009048Y-97008628D01*
X177913810Y-96484819D02*
X178151905Y-97484819D01*
X178151905Y-97484819D02*
X178342381Y-96770533D01*
X178342381Y-96770533D02*
X178532857Y-97484819D01*
X178532857Y-97484819D02*
X178770953Y-96484819D01*
X179151905Y-97484819D02*
X179151905Y-96484819D01*
X179151905Y-96484819D02*
X179485238Y-97199104D01*
X179485238Y-97199104D02*
X179818571Y-96484819D01*
X179818571Y-96484819D02*
X179818571Y-97484819D01*
X180723333Y-96818152D02*
X180723333Y-97484819D01*
X180485238Y-96437200D02*
X180247143Y-97151485D01*
X180247143Y-97151485D02*
X180866190Y-97151485D01*
X177169048Y-107524819D02*
X177169048Y-106524819D01*
X177169048Y-106524819D02*
X177550000Y-106524819D01*
X177550000Y-106524819D02*
X177645238Y-106572438D01*
X177645238Y-106572438D02*
X177692857Y-106620057D01*
X177692857Y-106620057D02*
X177740476Y-106715295D01*
X177740476Y-106715295D02*
X177740476Y-106858152D01*
X177740476Y-106858152D02*
X177692857Y-106953390D01*
X177692857Y-106953390D02*
X177645238Y-107001009D01*
X177645238Y-107001009D02*
X177550000Y-107048628D01*
X177550000Y-107048628D02*
X177169048Y-107048628D01*
X178073810Y-106524819D02*
X178311905Y-107524819D01*
X178311905Y-107524819D02*
X178502381Y-106810533D01*
X178502381Y-106810533D02*
X178692857Y-107524819D01*
X178692857Y-107524819D02*
X178930953Y-106524819D01*
X179311905Y-107524819D02*
X179311905Y-106524819D01*
X179311905Y-106524819D02*
X179645238Y-107239104D01*
X179645238Y-107239104D02*
X179978571Y-106524819D01*
X179978571Y-106524819D02*
X179978571Y-107524819D01*
X180978571Y-107524819D02*
X180407143Y-107524819D01*
X180692857Y-107524819D02*
X180692857Y-106524819D01*
X180692857Y-106524819D02*
X180597619Y-106667676D01*
X180597619Y-106667676D02*
X180502381Y-106762914D01*
X180502381Y-106762914D02*
X180407143Y-106810533D01*
X150164819Y-103716666D02*
X149688628Y-104049999D01*
X150164819Y-104288094D02*
X149164819Y-104288094D01*
X149164819Y-104288094D02*
X149164819Y-103907142D01*
X149164819Y-103907142D02*
X149212438Y-103811904D01*
X149212438Y-103811904D02*
X149260057Y-103764285D01*
X149260057Y-103764285D02*
X149355295Y-103716666D01*
X149355295Y-103716666D02*
X149498152Y-103716666D01*
X149498152Y-103716666D02*
X149593390Y-103764285D01*
X149593390Y-103764285D02*
X149641009Y-103811904D01*
X149641009Y-103811904D02*
X149688628Y-103907142D01*
X149688628Y-103907142D02*
X149688628Y-104288094D01*
X149164819Y-102859523D02*
X149164819Y-103049999D01*
X149164819Y-103049999D02*
X149212438Y-103145237D01*
X149212438Y-103145237D02*
X149260057Y-103192856D01*
X149260057Y-103192856D02*
X149402914Y-103288094D01*
X149402914Y-103288094D02*
X149593390Y-103335713D01*
X149593390Y-103335713D02*
X149974342Y-103335713D01*
X149974342Y-103335713D02*
X150069580Y-103288094D01*
X150069580Y-103288094D02*
X150117200Y-103240475D01*
X150117200Y-103240475D02*
X150164819Y-103145237D01*
X150164819Y-103145237D02*
X150164819Y-102954761D01*
X150164819Y-102954761D02*
X150117200Y-102859523D01*
X150117200Y-102859523D02*
X150069580Y-102811904D01*
X150069580Y-102811904D02*
X149974342Y-102764285D01*
X149974342Y-102764285D02*
X149736247Y-102764285D01*
X149736247Y-102764285D02*
X149641009Y-102811904D01*
X149641009Y-102811904D02*
X149593390Y-102859523D01*
X149593390Y-102859523D02*
X149545771Y-102954761D01*
X149545771Y-102954761D02*
X149545771Y-103145237D01*
X149545771Y-103145237D02*
X149593390Y-103240475D01*
X149593390Y-103240475D02*
X149641009Y-103288094D01*
X149641009Y-103288094D02*
X149736247Y-103335713D01*
X181553333Y-110654819D02*
X181220000Y-110178628D01*
X180981905Y-110654819D02*
X180981905Y-109654819D01*
X180981905Y-109654819D02*
X181362857Y-109654819D01*
X181362857Y-109654819D02*
X181458095Y-109702438D01*
X181458095Y-109702438D02*
X181505714Y-109750057D01*
X181505714Y-109750057D02*
X181553333Y-109845295D01*
X181553333Y-109845295D02*
X181553333Y-109988152D01*
X181553333Y-109988152D02*
X181505714Y-110083390D01*
X181505714Y-110083390D02*
X181458095Y-110131009D01*
X181458095Y-110131009D02*
X181362857Y-110178628D01*
X181362857Y-110178628D02*
X180981905Y-110178628D01*
X182505714Y-110654819D02*
X181934286Y-110654819D01*
X182220000Y-110654819D02*
X182220000Y-109654819D01*
X182220000Y-109654819D02*
X182124762Y-109797676D01*
X182124762Y-109797676D02*
X182029524Y-109892914D01*
X182029524Y-109892914D02*
X181934286Y-109940533D01*
X148414819Y-103716666D02*
X147938628Y-104049999D01*
X148414819Y-104288094D02*
X147414819Y-104288094D01*
X147414819Y-104288094D02*
X147414819Y-103907142D01*
X147414819Y-103907142D02*
X147462438Y-103811904D01*
X147462438Y-103811904D02*
X147510057Y-103764285D01*
X147510057Y-103764285D02*
X147605295Y-103716666D01*
X147605295Y-103716666D02*
X147748152Y-103716666D01*
X147748152Y-103716666D02*
X147843390Y-103764285D01*
X147843390Y-103764285D02*
X147891009Y-103811904D01*
X147891009Y-103811904D02*
X147938628Y-103907142D01*
X147938628Y-103907142D02*
X147938628Y-104288094D01*
X147414819Y-102811904D02*
X147414819Y-103288094D01*
X147414819Y-103288094D02*
X147891009Y-103335713D01*
X147891009Y-103335713D02*
X147843390Y-103288094D01*
X147843390Y-103288094D02*
X147795771Y-103192856D01*
X147795771Y-103192856D02*
X147795771Y-102954761D01*
X147795771Y-102954761D02*
X147843390Y-102859523D01*
X147843390Y-102859523D02*
X147891009Y-102811904D01*
X147891009Y-102811904D02*
X147986247Y-102764285D01*
X147986247Y-102764285D02*
X148224342Y-102764285D01*
X148224342Y-102764285D02*
X148319580Y-102811904D01*
X148319580Y-102811904D02*
X148367200Y-102859523D01*
X148367200Y-102859523D02*
X148414819Y-102954761D01*
X148414819Y-102954761D02*
X148414819Y-103192856D01*
X148414819Y-103192856D02*
X148367200Y-103288094D01*
X148367200Y-103288094D02*
X148319580Y-103335713D01*
X177239048Y-100674819D02*
X177239048Y-99674819D01*
X177239048Y-99674819D02*
X177620000Y-99674819D01*
X177620000Y-99674819D02*
X177715238Y-99722438D01*
X177715238Y-99722438D02*
X177762857Y-99770057D01*
X177762857Y-99770057D02*
X177810476Y-99865295D01*
X177810476Y-99865295D02*
X177810476Y-100008152D01*
X177810476Y-100008152D02*
X177762857Y-100103390D01*
X177762857Y-100103390D02*
X177715238Y-100151009D01*
X177715238Y-100151009D02*
X177620000Y-100198628D01*
X177620000Y-100198628D02*
X177239048Y-100198628D01*
X178143810Y-99674819D02*
X178381905Y-100674819D01*
X178381905Y-100674819D02*
X178572381Y-99960533D01*
X178572381Y-99960533D02*
X178762857Y-100674819D01*
X178762857Y-100674819D02*
X179000953Y-99674819D01*
X179381905Y-100674819D02*
X179381905Y-99674819D01*
X179381905Y-99674819D02*
X179715238Y-100389104D01*
X179715238Y-100389104D02*
X180048571Y-99674819D01*
X180048571Y-99674819D02*
X180048571Y-100674819D01*
X180429524Y-99674819D02*
X181048571Y-99674819D01*
X181048571Y-99674819D02*
X180715238Y-100055771D01*
X180715238Y-100055771D02*
X180858095Y-100055771D01*
X180858095Y-100055771D02*
X180953333Y-100103390D01*
X180953333Y-100103390D02*
X181000952Y-100151009D01*
X181000952Y-100151009D02*
X181048571Y-100246247D01*
X181048571Y-100246247D02*
X181048571Y-100484342D01*
X181048571Y-100484342D02*
X181000952Y-100579580D01*
X181000952Y-100579580D02*
X180953333Y-100627200D01*
X180953333Y-100627200D02*
X180858095Y-100674819D01*
X180858095Y-100674819D02*
X180572381Y-100674819D01*
X180572381Y-100674819D02*
X180477143Y-100627200D01*
X180477143Y-100627200D02*
X180429524Y-100579580D01*
X181553333Y-112404819D02*
X181220000Y-111928628D01*
X180981905Y-112404819D02*
X180981905Y-111404819D01*
X180981905Y-111404819D02*
X181362857Y-111404819D01*
X181362857Y-111404819D02*
X181458095Y-111452438D01*
X181458095Y-111452438D02*
X181505714Y-111500057D01*
X181505714Y-111500057D02*
X181553333Y-111595295D01*
X181553333Y-111595295D02*
X181553333Y-111738152D01*
X181553333Y-111738152D02*
X181505714Y-111833390D01*
X181505714Y-111833390D02*
X181458095Y-111881009D01*
X181458095Y-111881009D02*
X181362857Y-111928628D01*
X181362857Y-111928628D02*
X180981905Y-111928628D01*
X181934286Y-111500057D02*
X181981905Y-111452438D01*
X181981905Y-111452438D02*
X182077143Y-111404819D01*
X182077143Y-111404819D02*
X182315238Y-111404819D01*
X182315238Y-111404819D02*
X182410476Y-111452438D01*
X182410476Y-111452438D02*
X182458095Y-111500057D01*
X182458095Y-111500057D02*
X182505714Y-111595295D01*
X182505714Y-111595295D02*
X182505714Y-111690533D01*
X182505714Y-111690533D02*
X182458095Y-111833390D01*
X182458095Y-111833390D02*
X181886667Y-112404819D01*
X181886667Y-112404819D02*
X182505714Y-112404819D01*
X173293333Y-120959580D02*
X173245714Y-121007200D01*
X173245714Y-121007200D02*
X173102857Y-121054819D01*
X173102857Y-121054819D02*
X173007619Y-121054819D01*
X173007619Y-121054819D02*
X172864762Y-121007200D01*
X172864762Y-121007200D02*
X172769524Y-120911961D01*
X172769524Y-120911961D02*
X172721905Y-120816723D01*
X172721905Y-120816723D02*
X172674286Y-120626247D01*
X172674286Y-120626247D02*
X172674286Y-120483390D01*
X172674286Y-120483390D02*
X172721905Y-120292914D01*
X172721905Y-120292914D02*
X172769524Y-120197676D01*
X172769524Y-120197676D02*
X172864762Y-120102438D01*
X172864762Y-120102438D02*
X173007619Y-120054819D01*
X173007619Y-120054819D02*
X173102857Y-120054819D01*
X173102857Y-120054819D02*
X173245714Y-120102438D01*
X173245714Y-120102438D02*
X173293333Y-120150057D01*
X173626667Y-120054819D02*
X174245714Y-120054819D01*
X174245714Y-120054819D02*
X173912381Y-120435771D01*
X173912381Y-120435771D02*
X174055238Y-120435771D01*
X174055238Y-120435771D02*
X174150476Y-120483390D01*
X174150476Y-120483390D02*
X174198095Y-120531009D01*
X174198095Y-120531009D02*
X174245714Y-120626247D01*
X174245714Y-120626247D02*
X174245714Y-120864342D01*
X174245714Y-120864342D02*
X174198095Y-120959580D01*
X174198095Y-120959580D02*
X174150476Y-121007200D01*
X174150476Y-121007200D02*
X174055238Y-121054819D01*
X174055238Y-121054819D02*
X173769524Y-121054819D01*
X173769524Y-121054819D02*
X173674286Y-121007200D01*
X173674286Y-121007200D02*
X173626667Y-120959580D01*
X173243333Y-123519580D02*
X173195714Y-123567200D01*
X173195714Y-123567200D02*
X173052857Y-123614819D01*
X173052857Y-123614819D02*
X172957619Y-123614819D01*
X172957619Y-123614819D02*
X172814762Y-123567200D01*
X172814762Y-123567200D02*
X172719524Y-123471961D01*
X172719524Y-123471961D02*
X172671905Y-123376723D01*
X172671905Y-123376723D02*
X172624286Y-123186247D01*
X172624286Y-123186247D02*
X172624286Y-123043390D01*
X172624286Y-123043390D02*
X172671905Y-122852914D01*
X172671905Y-122852914D02*
X172719524Y-122757676D01*
X172719524Y-122757676D02*
X172814762Y-122662438D01*
X172814762Y-122662438D02*
X172957619Y-122614819D01*
X172957619Y-122614819D02*
X173052857Y-122614819D01*
X173052857Y-122614819D02*
X173195714Y-122662438D01*
X173195714Y-122662438D02*
X173243333Y-122710057D01*
X173624286Y-122710057D02*
X173671905Y-122662438D01*
X173671905Y-122662438D02*
X173767143Y-122614819D01*
X173767143Y-122614819D02*
X174005238Y-122614819D01*
X174005238Y-122614819D02*
X174100476Y-122662438D01*
X174100476Y-122662438D02*
X174148095Y-122710057D01*
X174148095Y-122710057D02*
X174195714Y-122805295D01*
X174195714Y-122805295D02*
X174195714Y-122900533D01*
X174195714Y-122900533D02*
X174148095Y-123043390D01*
X174148095Y-123043390D02*
X173576667Y-123614819D01*
X173576667Y-123614819D02*
X174195714Y-123614819D01*
X149525180Y-105336666D02*
X148810895Y-105336666D01*
X148810895Y-105336666D02*
X148668038Y-105289047D01*
X148668038Y-105289047D02*
X148572800Y-105193809D01*
X148572800Y-105193809D02*
X148525180Y-105050952D01*
X148525180Y-105050952D02*
X148525180Y-104955714D01*
X148525180Y-106336666D02*
X148525180Y-105765238D01*
X148525180Y-106050952D02*
X149525180Y-106050952D01*
X149525180Y-106050952D02*
X149382323Y-105955714D01*
X149382323Y-105955714D02*
X149287085Y-105860476D01*
X149287085Y-105860476D02*
X149239466Y-105765238D01*
X173333333Y-118189580D02*
X173285714Y-118237200D01*
X173285714Y-118237200D02*
X173142857Y-118284819D01*
X173142857Y-118284819D02*
X173047619Y-118284819D01*
X173047619Y-118284819D02*
X172904762Y-118237200D01*
X172904762Y-118237200D02*
X172809524Y-118141961D01*
X172809524Y-118141961D02*
X172761905Y-118046723D01*
X172761905Y-118046723D02*
X172714286Y-117856247D01*
X172714286Y-117856247D02*
X172714286Y-117713390D01*
X172714286Y-117713390D02*
X172761905Y-117522914D01*
X172761905Y-117522914D02*
X172809524Y-117427676D01*
X172809524Y-117427676D02*
X172904762Y-117332438D01*
X172904762Y-117332438D02*
X173047619Y-117284819D01*
X173047619Y-117284819D02*
X173142857Y-117284819D01*
X173142857Y-117284819D02*
X173285714Y-117332438D01*
X173285714Y-117332438D02*
X173333333Y-117380057D01*
X174285714Y-118284819D02*
X173714286Y-118284819D01*
X174000000Y-118284819D02*
X174000000Y-117284819D01*
X174000000Y-117284819D02*
X173904762Y-117427676D01*
X173904762Y-117427676D02*
X173809524Y-117522914D01*
X173809524Y-117522914D02*
X173714286Y-117570533D01*
X177009048Y-104024819D02*
X177009048Y-103024819D01*
X177009048Y-103024819D02*
X177390000Y-103024819D01*
X177390000Y-103024819D02*
X177485238Y-103072438D01*
X177485238Y-103072438D02*
X177532857Y-103120057D01*
X177532857Y-103120057D02*
X177580476Y-103215295D01*
X177580476Y-103215295D02*
X177580476Y-103358152D01*
X177580476Y-103358152D02*
X177532857Y-103453390D01*
X177532857Y-103453390D02*
X177485238Y-103501009D01*
X177485238Y-103501009D02*
X177390000Y-103548628D01*
X177390000Y-103548628D02*
X177009048Y-103548628D01*
X177913810Y-103024819D02*
X178151905Y-104024819D01*
X178151905Y-104024819D02*
X178342381Y-103310533D01*
X178342381Y-103310533D02*
X178532857Y-104024819D01*
X178532857Y-104024819D02*
X178770953Y-103024819D01*
X179151905Y-104024819D02*
X179151905Y-103024819D01*
X179151905Y-103024819D02*
X179485238Y-103739104D01*
X179485238Y-103739104D02*
X179818571Y-103024819D01*
X179818571Y-103024819D02*
X179818571Y-104024819D01*
X180247143Y-103120057D02*
X180294762Y-103072438D01*
X180294762Y-103072438D02*
X180390000Y-103024819D01*
X180390000Y-103024819D02*
X180628095Y-103024819D01*
X180628095Y-103024819D02*
X180723333Y-103072438D01*
X180723333Y-103072438D02*
X180770952Y-103120057D01*
X180770952Y-103120057D02*
X180818571Y-103215295D01*
X180818571Y-103215295D02*
X180818571Y-103310533D01*
X180818571Y-103310533D02*
X180770952Y-103453390D01*
X180770952Y-103453390D02*
X180199524Y-104024819D01*
X180199524Y-104024819D02*
X180818571Y-104024819D01*
X104674819Y-110318096D02*
X104674819Y-110889524D01*
X104674819Y-110603810D02*
X103674819Y-110603810D01*
X103674819Y-110603810D02*
X103817676Y-110699048D01*
X103817676Y-110699048D02*
X103912914Y-110794286D01*
X103912914Y-110794286D02*
X103960533Y-110889524D01*
X103770057Y-109937143D02*
X103722438Y-109889524D01*
X103722438Y-109889524D02*
X103674819Y-109794286D01*
X103674819Y-109794286D02*
X103674819Y-109556191D01*
X103674819Y-109556191D02*
X103722438Y-109460953D01*
X103722438Y-109460953D02*
X103770057Y-109413334D01*
X103770057Y-109413334D02*
X103865295Y-109365715D01*
X103865295Y-109365715D02*
X103960533Y-109365715D01*
X103960533Y-109365715D02*
X104103390Y-109413334D01*
X104103390Y-109413334D02*
X104674819Y-109984762D01*
X104674819Y-109984762D02*
X104674819Y-109365715D01*
X103674819Y-109080000D02*
X104674819Y-108746667D01*
X104674819Y-108746667D02*
X103674819Y-108413334D01*
X104151009Y-107746667D02*
X104198628Y-107603810D01*
X104198628Y-107603810D02*
X104246247Y-107556191D01*
X104246247Y-107556191D02*
X104341485Y-107508572D01*
X104341485Y-107508572D02*
X104484342Y-107508572D01*
X104484342Y-107508572D02*
X104579580Y-107556191D01*
X104579580Y-107556191D02*
X104627200Y-107603810D01*
X104627200Y-107603810D02*
X104674819Y-107699048D01*
X104674819Y-107699048D02*
X104674819Y-108080000D01*
X104674819Y-108080000D02*
X103674819Y-108080000D01*
X103674819Y-108080000D02*
X103674819Y-107746667D01*
X103674819Y-107746667D02*
X103722438Y-107651429D01*
X103722438Y-107651429D02*
X103770057Y-107603810D01*
X103770057Y-107603810D02*
X103865295Y-107556191D01*
X103865295Y-107556191D02*
X103960533Y-107556191D01*
X103960533Y-107556191D02*
X104055771Y-107603810D01*
X104055771Y-107603810D02*
X104103390Y-107651429D01*
X104103390Y-107651429D02*
X104151009Y-107746667D01*
X104151009Y-107746667D02*
X104151009Y-108080000D01*
X104674819Y-106651429D02*
X104151009Y-106651429D01*
X104151009Y-106651429D02*
X104055771Y-106699048D01*
X104055771Y-106699048D02*
X104008152Y-106794286D01*
X104008152Y-106794286D02*
X104008152Y-106984762D01*
X104008152Y-106984762D02*
X104055771Y-107080000D01*
X104627200Y-106651429D02*
X104674819Y-106746667D01*
X104674819Y-106746667D02*
X104674819Y-106984762D01*
X104674819Y-106984762D02*
X104627200Y-107080000D01*
X104627200Y-107080000D02*
X104531961Y-107127619D01*
X104531961Y-107127619D02*
X104436723Y-107127619D01*
X104436723Y-107127619D02*
X104341485Y-107080000D01*
X104341485Y-107080000D02*
X104293866Y-106984762D01*
X104293866Y-106984762D02*
X104293866Y-106746667D01*
X104293866Y-106746667D02*
X104246247Y-106651429D01*
X104008152Y-106318095D02*
X104008152Y-105937143D01*
X103674819Y-106175238D02*
X104531961Y-106175238D01*
X104531961Y-106175238D02*
X104627200Y-106127619D01*
X104627200Y-106127619D02*
X104674819Y-106032381D01*
X104674819Y-106032381D02*
X104674819Y-105937143D01*
X104008152Y-105746666D02*
X104008152Y-105365714D01*
X103674819Y-105603809D02*
X104531961Y-105603809D01*
X104531961Y-105603809D02*
X104627200Y-105556190D01*
X104627200Y-105556190D02*
X104674819Y-105460952D01*
X104674819Y-105460952D02*
X104674819Y-105365714D01*
X104627200Y-104651428D02*
X104674819Y-104746666D01*
X104674819Y-104746666D02*
X104674819Y-104937142D01*
X104674819Y-104937142D02*
X104627200Y-105032380D01*
X104627200Y-105032380D02*
X104531961Y-105079999D01*
X104531961Y-105079999D02*
X104151009Y-105079999D01*
X104151009Y-105079999D02*
X104055771Y-105032380D01*
X104055771Y-105032380D02*
X104008152Y-104937142D01*
X104008152Y-104937142D02*
X104008152Y-104746666D01*
X104008152Y-104746666D02*
X104055771Y-104651428D01*
X104055771Y-104651428D02*
X104151009Y-104603809D01*
X104151009Y-104603809D02*
X104246247Y-104603809D01*
X104246247Y-104603809D02*
X104341485Y-105079999D01*
X104674819Y-104175237D02*
X104008152Y-104175237D01*
X104198628Y-104175237D02*
X104103390Y-104127618D01*
X104103390Y-104127618D02*
X104055771Y-104079999D01*
X104055771Y-104079999D02*
X104008152Y-103984761D01*
X104008152Y-103984761D02*
X104008152Y-103889523D01*
X104008152Y-103651427D02*
X104674819Y-103413332D01*
X104008152Y-103175237D02*
X104674819Y-103413332D01*
X104674819Y-103413332D02*
X104912914Y-103508570D01*
X104912914Y-103508570D02*
X104960533Y-103556189D01*
X104960533Y-103556189D02*
X105008152Y-103651427D01*
X104674819Y-102270475D02*
X104674819Y-102841903D01*
X104674819Y-102556189D02*
X103674819Y-102556189D01*
X103674819Y-102556189D02*
X103817676Y-102651427D01*
X103817676Y-102651427D02*
X103912914Y-102746665D01*
X103912914Y-102746665D02*
X103960533Y-102841903D01*
X116043333Y-103704819D02*
X115710000Y-103228628D01*
X115471905Y-103704819D02*
X115471905Y-102704819D01*
X115471905Y-102704819D02*
X115852857Y-102704819D01*
X115852857Y-102704819D02*
X115948095Y-102752438D01*
X115948095Y-102752438D02*
X115995714Y-102800057D01*
X115995714Y-102800057D02*
X116043333Y-102895295D01*
X116043333Y-102895295D02*
X116043333Y-103038152D01*
X116043333Y-103038152D02*
X115995714Y-103133390D01*
X115995714Y-103133390D02*
X115948095Y-103181009D01*
X115948095Y-103181009D02*
X115852857Y-103228628D01*
X115852857Y-103228628D02*
X115471905Y-103228628D01*
X116376667Y-102704819D02*
X116995714Y-102704819D01*
X116995714Y-102704819D02*
X116662381Y-103085771D01*
X116662381Y-103085771D02*
X116805238Y-103085771D01*
X116805238Y-103085771D02*
X116900476Y-103133390D01*
X116900476Y-103133390D02*
X116948095Y-103181009D01*
X116948095Y-103181009D02*
X116995714Y-103276247D01*
X116995714Y-103276247D02*
X116995714Y-103514342D01*
X116995714Y-103514342D02*
X116948095Y-103609580D01*
X116948095Y-103609580D02*
X116900476Y-103657200D01*
X116900476Y-103657200D02*
X116805238Y-103704819D01*
X116805238Y-103704819D02*
X116519524Y-103704819D01*
X116519524Y-103704819D02*
X116424286Y-103657200D01*
X116424286Y-103657200D02*
X116376667Y-103609580D01*
X108939819Y-107106904D02*
X109749342Y-107106904D01*
X109749342Y-107106904D02*
X109844580Y-107059285D01*
X109844580Y-107059285D02*
X109892200Y-107011666D01*
X109892200Y-107011666D02*
X109939819Y-106916428D01*
X109939819Y-106916428D02*
X109939819Y-106725952D01*
X109939819Y-106725952D02*
X109892200Y-106630714D01*
X109892200Y-106630714D02*
X109844580Y-106583095D01*
X109844580Y-106583095D02*
X109749342Y-106535476D01*
X109749342Y-106535476D02*
X108939819Y-106535476D01*
X109939819Y-105535476D02*
X109939819Y-106106904D01*
X109939819Y-105821190D02*
X108939819Y-105821190D01*
X108939819Y-105821190D02*
X109082676Y-105916428D01*
X109082676Y-105916428D02*
X109177914Y-106011666D01*
X109177914Y-106011666D02*
X109225533Y-106106904D01*
X116879819Y-106883094D02*
X115879819Y-106883094D01*
X115879819Y-106883094D02*
X115879819Y-106502142D01*
X115879819Y-106502142D02*
X115927438Y-106406904D01*
X115927438Y-106406904D02*
X115975057Y-106359285D01*
X115975057Y-106359285D02*
X116070295Y-106311666D01*
X116070295Y-106311666D02*
X116213152Y-106311666D01*
X116213152Y-106311666D02*
X116308390Y-106359285D01*
X116308390Y-106359285D02*
X116356009Y-106406904D01*
X116356009Y-106406904D02*
X116403628Y-106502142D01*
X116403628Y-106502142D02*
X116403628Y-106883094D01*
X116879819Y-105359285D02*
X116879819Y-105930713D01*
X116879819Y-105644999D02*
X115879819Y-105644999D01*
X115879819Y-105644999D02*
X116022676Y-105740237D01*
X116022676Y-105740237D02*
X116117914Y-105835475D01*
X116117914Y-105835475D02*
X116165533Y-105930713D01*
D12*
%TO.C,G\u002A\u002A\u002A*%
G36*
X145970000Y-90060000D02*
G01*
X145970000Y-92560000D01*
X143470000Y-92560000D01*
X140970000Y-92560000D01*
X140970000Y-92510000D01*
X141020000Y-92510000D01*
X143470000Y-92510000D01*
X145920000Y-92510000D01*
X145920000Y-90635000D01*
X145920000Y-88760000D01*
X145472235Y-88760000D01*
X145024471Y-88760000D01*
X144802359Y-88877500D01*
X144580247Y-88995000D01*
X144580123Y-89042821D01*
X144571381Y-89105589D01*
X144547462Y-89159446D01*
X144511306Y-89203070D01*
X144465856Y-89235138D01*
X144414053Y-89254326D01*
X144358837Y-89259312D01*
X144303151Y-89248774D01*
X144249936Y-89221388D01*
X144226239Y-89201969D01*
X144188122Y-89153851D01*
X144166788Y-89099486D01*
X144162205Y-89049386D01*
X144255000Y-89049386D01*
X144263716Y-89098015D01*
X144288825Y-89136567D01*
X144325000Y-89160971D01*
X144363159Y-89167882D01*
X144405205Y-89160228D01*
X144443520Y-89139804D01*
X144454066Y-89130549D01*
X144473683Y-89107474D01*
X144482761Y-89084066D01*
X144484999Y-89050693D01*
X144485000Y-89050000D01*
X144482904Y-89016621D01*
X144474004Y-88993169D01*
X144454383Y-88969781D01*
X144452307Y-88967692D01*
X144428514Y-88947079D01*
X144405419Y-88937491D01*
X144373159Y-88935008D01*
X144370000Y-88935000D01*
X144336621Y-88937095D01*
X144313169Y-88945995D01*
X144289781Y-88965616D01*
X144287692Y-88967692D01*
X144266929Y-88991734D01*
X144257370Y-89015139D01*
X144255001Y-89047933D01*
X144255000Y-89049386D01*
X144162205Y-89049386D01*
X144161565Y-89042392D01*
X144171784Y-88986092D01*
X144196774Y-88934105D01*
X144235866Y-88889952D01*
X144288390Y-88857154D01*
X144292178Y-88855530D01*
X144347110Y-88842088D01*
X144405022Y-88844001D01*
X144459678Y-88860257D01*
X144504839Y-88889848D01*
X144504967Y-88889969D01*
X144511463Y-88895444D01*
X144518782Y-88898496D01*
X144529074Y-88898238D01*
X144544492Y-88893783D01*
X144567186Y-88884242D01*
X144599307Y-88868728D01*
X144643007Y-88846353D01*
X144700438Y-88816229D01*
X144760103Y-88784690D01*
X144995000Y-88660397D01*
X145457500Y-88660198D01*
X145920000Y-88660000D01*
X145920000Y-88485000D01*
X145920000Y-88310000D01*
X145302122Y-88310000D01*
X144684245Y-88310000D01*
X144460597Y-88428794D01*
X144236950Y-88547589D01*
X144235975Y-88611294D01*
X144227336Y-88677222D01*
X144203300Y-88730659D01*
X144163357Y-88772465D01*
X144128181Y-88794033D01*
X144070961Y-88815227D01*
X144017342Y-88818314D01*
X143962388Y-88803247D01*
X143938985Y-88792156D01*
X143903085Y-88770158D01*
X143878252Y-88744808D01*
X143857843Y-88711014D01*
X143835552Y-88653455D01*
X143832551Y-88610031D01*
X143920000Y-88610031D01*
X143927974Y-88647131D01*
X143948358Y-88684055D01*
X143975840Y-88711353D01*
X143977556Y-88712452D01*
X144016303Y-88727829D01*
X144056744Y-88725162D01*
X144083928Y-88714838D01*
X144115610Y-88691516D01*
X144139318Y-88658726D01*
X144149865Y-88623920D01*
X144150000Y-88619968D01*
X144141628Y-88580593D01*
X144119577Y-88544336D01*
X144088442Y-88516207D01*
X144052817Y-88501216D01*
X144039968Y-88500000D01*
X144000593Y-88508371D01*
X143964336Y-88530422D01*
X143936207Y-88561557D01*
X143921216Y-88597182D01*
X143920000Y-88610031D01*
X143832551Y-88610031D01*
X143831755Y-88598519D01*
X143846344Y-88541492D01*
X143853491Y-88524972D01*
X143887566Y-88473170D01*
X143932912Y-88436521D01*
X143986734Y-88415964D01*
X144046233Y-88412437D01*
X144108613Y-88426880D01*
X144125184Y-88433798D01*
X144182742Y-88460149D01*
X144419858Y-88335074D01*
X144656974Y-88210000D01*
X145288487Y-88210000D01*
X145920000Y-88210000D01*
X145920000Y-87910000D01*
X145920000Y-87610000D01*
X143470000Y-87610000D01*
X141020000Y-87610000D01*
X141020000Y-90060000D01*
X141020000Y-92510000D01*
X140970000Y-92510000D01*
X140970000Y-90060000D01*
X140970000Y-87560000D01*
X143470000Y-87560000D01*
X145970000Y-87560000D01*
X145970000Y-90060000D01*
G37*
G36*
X143519009Y-90225580D02*
G01*
X143588718Y-90229552D01*
X143648599Y-90236940D01*
X143680000Y-90243725D01*
X143805993Y-90288451D01*
X143921794Y-90349813D01*
X144026147Y-90426557D01*
X144117797Y-90517427D01*
X144195489Y-90621168D01*
X144257969Y-90736525D01*
X144303981Y-90862243D01*
X144306172Y-90870023D01*
X144315851Y-90919977D01*
X144322120Y-90983730D01*
X144324976Y-91055377D01*
X144324419Y-91129009D01*
X144320447Y-91198718D01*
X144313059Y-91258599D01*
X144306274Y-91290000D01*
X144261897Y-91414887D01*
X144200903Y-91530109D01*
X144124708Y-91634240D01*
X144034728Y-91725858D01*
X143932379Y-91803540D01*
X143819076Y-91865863D01*
X143696234Y-91911403D01*
X143685000Y-91914563D01*
X143650323Y-91921303D01*
X143601462Y-91927221D01*
X143544120Y-91932000D01*
X143484000Y-91935321D01*
X143426806Y-91936867D01*
X143378242Y-91936319D01*
X143345000Y-91933523D01*
X143247360Y-91910723D01*
X143146072Y-91874360D01*
X143048567Y-91827521D01*
X142966564Y-91776383D01*
X142870439Y-91695535D01*
X142786519Y-91599993D01*
X142716313Y-91491959D01*
X142661326Y-91373636D01*
X142633827Y-91289976D01*
X142624148Y-91240022D01*
X142617879Y-91176269D01*
X142615023Y-91104622D01*
X142615514Y-91039709D01*
X142685096Y-91039709D01*
X142685495Y-91130354D01*
X142693920Y-91216631D01*
X142707962Y-91282991D01*
X142752079Y-91402970D01*
X142812232Y-91512099D01*
X142887084Y-91609165D01*
X142975300Y-91692949D01*
X143075543Y-91762239D01*
X143186477Y-91815816D01*
X143306767Y-91852467D01*
X143341639Y-91859476D01*
X143395829Y-91865143D01*
X143462205Y-91866032D01*
X143533637Y-91862552D01*
X143602995Y-91855111D01*
X143663149Y-91844117D01*
X143678286Y-91840202D01*
X143796618Y-91796718D01*
X143904663Y-91736685D01*
X144001096Y-91661429D01*
X144084594Y-91572280D01*
X144153831Y-91470566D01*
X144207485Y-91357617D01*
X144231648Y-91285000D01*
X144247281Y-91207882D01*
X144254903Y-91120290D01*
X144254504Y-91029645D01*
X144246079Y-90943368D01*
X144232037Y-90877008D01*
X144187725Y-90756329D01*
X144127343Y-90646779D01*
X144052020Y-90549488D01*
X143962881Y-90465588D01*
X143861056Y-90396208D01*
X143747671Y-90342480D01*
X143675000Y-90318351D01*
X143597882Y-90302718D01*
X143510290Y-90295096D01*
X143419645Y-90295495D01*
X143333368Y-90303920D01*
X143267008Y-90317962D01*
X143146329Y-90362274D01*
X143036779Y-90422656D01*
X142939488Y-90497979D01*
X142855588Y-90587118D01*
X142786208Y-90688943D01*
X142732480Y-90802328D01*
X142708351Y-90875000D01*
X142692718Y-90952117D01*
X142685096Y-91039709D01*
X142615514Y-91039709D01*
X142615580Y-91030990D01*
X142619552Y-90961281D01*
X142626940Y-90901400D01*
X142633725Y-90870000D01*
X142678451Y-90744006D01*
X142739813Y-90628205D01*
X142816557Y-90523852D01*
X142907427Y-90432202D01*
X143011168Y-90354510D01*
X143126525Y-90292030D01*
X143252243Y-90246018D01*
X143260023Y-90243827D01*
X143309977Y-90234148D01*
X143373730Y-90227879D01*
X143445377Y-90225023D01*
X143519009Y-90225580D01*
G37*
G36*
X141350138Y-89337719D02*
G01*
X141358871Y-89349895D01*
X141395476Y-89400476D01*
X141441957Y-89457035D01*
X141492574Y-89513051D01*
X141541587Y-89562004D01*
X141560964Y-89579452D01*
X141638950Y-89643292D01*
X141710088Y-89693521D01*
X141778997Y-89732911D01*
X141850299Y-89764235D01*
X141895000Y-89779939D01*
X142032512Y-89833354D01*
X142167329Y-89902647D01*
X142294463Y-89984842D01*
X142408926Y-90076963D01*
X142437684Y-90103801D01*
X142497642Y-90166290D01*
X142542028Y-90224033D01*
X142573261Y-90281020D01*
X142593760Y-90341240D01*
X142600448Y-90372197D01*
X142605243Y-90404672D01*
X142605124Y-90431349D01*
X142599195Y-90460247D01*
X142586561Y-90499385D01*
X142586091Y-90500738D01*
X142557479Y-90570576D01*
X142524120Y-90625345D01*
X142483399Y-90666797D01*
X142432698Y-90696685D01*
X142369402Y-90716763D01*
X142290894Y-90728783D01*
X142240000Y-90732610D01*
X142193816Y-90733702D01*
X142138037Y-90732919D01*
X142082962Y-90730448D01*
X142070000Y-90729549D01*
X141981477Y-90719870D01*
X141911718Y-90705517D01*
X141859975Y-90686221D01*
X141825503Y-90661711D01*
X141808724Y-90635237D01*
X141799573Y-90615792D01*
X141785843Y-90603716D01*
X141761601Y-90595068D01*
X141740940Y-90590190D01*
X141669174Y-90570025D01*
X141612364Y-90544785D01*
X141571732Y-90515377D01*
X141548504Y-90482705D01*
X141543904Y-90447676D01*
X141544392Y-90444720D01*
X141546646Y-90424773D01*
X141540883Y-90412574D01*
X141522771Y-90402533D01*
X141506828Y-90396229D01*
X141447893Y-90368803D01*
X141400691Y-90337027D01*
X141366383Y-90302849D01*
X141346130Y-90268220D01*
X141341091Y-90235090D01*
X141352428Y-90205409D01*
X141379440Y-90182173D01*
X141408162Y-90165688D01*
X141352717Y-90105801D01*
X141308034Y-90052085D01*
X141280852Y-90005708D01*
X141270716Y-89965192D01*
X141277173Y-89929061D01*
X141291288Y-89905633D01*
X141303239Y-89888949D01*
X141307509Y-89874545D01*
X141304533Y-89855117D01*
X141295956Y-89827108D01*
X141281423Y-89767486D01*
X141271159Y-89695458D01*
X141265751Y-89618275D01*
X141265769Y-89577007D01*
X141340034Y-89577007D01*
X141342196Y-89663705D01*
X141349046Y-89733905D01*
X141361051Y-89790657D01*
X141378677Y-89837012D01*
X141380239Y-89840156D01*
X141391106Y-89864809D01*
X141392040Y-89882467D01*
X141383382Y-89903297D01*
X141382415Y-89905156D01*
X141367453Y-89929031D01*
X141353059Y-89945117D01*
X141352818Y-89945297D01*
X141344087Y-89958145D01*
X141347814Y-89979133D01*
X141349135Y-89982726D01*
X141362411Y-90004776D01*
X141387085Y-90035271D01*
X141419133Y-90069925D01*
X141454527Y-90104451D01*
X141489244Y-90134563D01*
X141498509Y-90141781D01*
X141519229Y-90158442D01*
X141526271Y-90170715D01*
X141521951Y-90186224D01*
X141515752Y-90198543D01*
X141499966Y-90221048D01*
X141479388Y-90229473D01*
X141467243Y-90230153D01*
X141433051Y-90233387D01*
X141417805Y-90242772D01*
X141421375Y-90258454D01*
X141431518Y-90270016D01*
X141455968Y-90287886D01*
X141493842Y-90309160D01*
X141539508Y-90331170D01*
X141587332Y-90351254D01*
X141631682Y-90366745D01*
X141642500Y-90369839D01*
X141669892Y-90378556D01*
X141687056Y-90386631D01*
X141690000Y-90389970D01*
X141682363Y-90399254D01*
X141662866Y-90414823D01*
X141648120Y-90425056D01*
X141606240Y-90452771D01*
X141629324Y-90471463D01*
X141652593Y-90484597D01*
X141689820Y-90499453D01*
X141735286Y-90514157D01*
X141783275Y-90526837D01*
X141822419Y-90534730D01*
X141848817Y-90541951D01*
X141861798Y-90555369D01*
X141865754Y-90567938D01*
X141873309Y-90598550D01*
X141881385Y-90615618D01*
X141893957Y-90625297D01*
X141906139Y-90630433D01*
X141942903Y-90640135D01*
X141994785Y-90648119D01*
X142056957Y-90654180D01*
X142124595Y-90658114D01*
X142192871Y-90659716D01*
X142256961Y-90658782D01*
X142312038Y-90655105D01*
X142350000Y-90649264D01*
X142407030Y-90629572D01*
X142451240Y-90597854D01*
X142486492Y-90550936D01*
X142499352Y-90526357D01*
X142523250Y-90459029D01*
X142528843Y-90394134D01*
X142515799Y-90330233D01*
X142483791Y-90265886D01*
X142432488Y-90199654D01*
X142421933Y-90188220D01*
X142327293Y-90099872D01*
X142217076Y-90017771D01*
X142095356Y-89944447D01*
X141966209Y-89882433D01*
X141871974Y-89846566D01*
X141745142Y-89793218D01*
X141624271Y-89721091D01*
X141509087Y-89629996D01*
X141410292Y-89531895D01*
X141340068Y-89455000D01*
X141340034Y-89577007D01*
X141265769Y-89577007D01*
X141265783Y-89543190D01*
X141269250Y-89496693D01*
X141279130Y-89433226D01*
X141292931Y-89386549D01*
X141311732Y-89353655D01*
X141325712Y-89339409D01*
X141339219Y-89331480D01*
X141350138Y-89337719D01*
G37*
G36*
X145608442Y-89335199D02*
G01*
X145615216Y-89340179D01*
X145637184Y-89366359D01*
X145653569Y-89405109D01*
X145665318Y-89459183D01*
X145670616Y-89500881D01*
X145674442Y-89570441D01*
X145672779Y-89644458D01*
X145666171Y-89716758D01*
X145655166Y-89781166D01*
X145641708Y-89827925D01*
X145623181Y-89876685D01*
X145646590Y-89903900D01*
X145662695Y-89929876D01*
X145669965Y-89955929D01*
X145670000Y-89957400D01*
X145661741Y-89997420D01*
X145638538Y-90043325D01*
X145602747Y-90090967D01*
X145580939Y-90114074D01*
X145531359Y-90162909D01*
X145563179Y-90184277D01*
X145590023Y-90211337D01*
X145598802Y-90242775D01*
X145590519Y-90276930D01*
X145566175Y-90312138D01*
X145526772Y-90346735D01*
X145473310Y-90379059D01*
X145435404Y-90396463D01*
X145409104Y-90408578D01*
X145397303Y-90419672D01*
X145395617Y-90435316D01*
X145396980Y-90445266D01*
X145393023Y-90480269D01*
X145370454Y-90513131D01*
X145330629Y-90542859D01*
X145274904Y-90568460D01*
X145204634Y-90588942D01*
X145199059Y-90590190D01*
X145166224Y-90598647D01*
X145147265Y-90608296D01*
X145136247Y-90623080D01*
X145131275Y-90635237D01*
X145108957Y-90668410D01*
X145084457Y-90684587D01*
X145033771Y-90702588D01*
X144967687Y-90716872D01*
X144890535Y-90726994D01*
X144806647Y-90732512D01*
X144720353Y-90732983D01*
X144648847Y-90729127D01*
X144567822Y-90716948D01*
X144502143Y-90694343D01*
X144449128Y-90659541D01*
X144406092Y-90610773D01*
X144370354Y-90546268D01*
X144369782Y-90545000D01*
X144348380Y-90492325D01*
X144337198Y-90449536D01*
X144336519Y-90436279D01*
X144412082Y-90436279D01*
X144427272Y-90495441D01*
X144440281Y-90525589D01*
X144470957Y-90577839D01*
X144507255Y-90614082D01*
X144553745Y-90638283D01*
X144579387Y-90646350D01*
X144611743Y-90651858D01*
X144658972Y-90655829D01*
X144716007Y-90658227D01*
X144777776Y-90659015D01*
X144839212Y-90658156D01*
X144895245Y-90655615D01*
X144940805Y-90651354D01*
X144955461Y-90649068D01*
X145007311Y-90637284D01*
X145042005Y-90623472D01*
X145062385Y-90605907D01*
X145071293Y-90582863D01*
X145071860Y-90578386D01*
X145074108Y-90563380D01*
X145079827Y-90552906D01*
X145092819Y-90544783D01*
X145116887Y-90536826D01*
X145155832Y-90526855D01*
X145165931Y-90524380D01*
X145230681Y-90506634D01*
X145280119Y-90488998D01*
X145312562Y-90472146D01*
X145324571Y-90460693D01*
X145320270Y-90450422D01*
X145303083Y-90433706D01*
X145284088Y-90419373D01*
X145237766Y-90387502D01*
X145321383Y-90360433D01*
X145396741Y-90333518D01*
X145454324Y-90307084D01*
X145496301Y-90280076D01*
X145508481Y-90269567D01*
X145522520Y-90250551D01*
X145517664Y-90237777D01*
X145493847Y-90231177D01*
X145472756Y-90230153D01*
X145447611Y-90225986D01*
X145430850Y-90210081D01*
X145424247Y-90198543D01*
X145414777Y-90178144D01*
X145415445Y-90165095D01*
X145428571Y-90151772D01*
X145441490Y-90141904D01*
X145470912Y-90117448D01*
X145503941Y-90086381D01*
X145536765Y-90052753D01*
X145565573Y-90020613D01*
X145586551Y-89994009D01*
X145595550Y-89978264D01*
X145595400Y-89954892D01*
X145587817Y-89945761D01*
X145572971Y-89929523D01*
X145557801Y-89905571D01*
X145557779Y-89905529D01*
X145548686Y-89884536D01*
X145549009Y-89867208D01*
X145559235Y-89843733D01*
X145561017Y-89840293D01*
X145578168Y-89797697D01*
X145590094Y-89744409D01*
X145597212Y-89677613D01*
X145599942Y-89594498D01*
X145600000Y-89578387D01*
X145600000Y-89459504D01*
X145497500Y-89563115D01*
X145406588Y-89649353D01*
X145319981Y-89719179D01*
X145234477Y-89774719D01*
X145146873Y-89818099D01*
X145071123Y-89846120D01*
X144978973Y-89880305D01*
X144886212Y-89923328D01*
X144795338Y-89973359D01*
X144708850Y-90028571D01*
X144629247Y-90087136D01*
X144559027Y-90147225D01*
X144500689Y-90207010D01*
X144456732Y-90264663D01*
X144431074Y-90314423D01*
X144413443Y-90378108D01*
X144412082Y-90436279D01*
X144336519Y-90436279D01*
X144335173Y-90410003D01*
X144341231Y-90367151D01*
X144358554Y-90304034D01*
X144384063Y-90247364D01*
X144420470Y-90192729D01*
X144470486Y-90135720D01*
X144503961Y-90102536D01*
X144626071Y-89998182D01*
X144757952Y-89909754D01*
X144901742Y-89835963D01*
X145027870Y-89786222D01*
X145086049Y-89765421D01*
X145130814Y-89747683D01*
X145167889Y-89730258D01*
X145202996Y-89710397D01*
X145241860Y-89685350D01*
X145251852Y-89678621D01*
X145355692Y-89598956D01*
X145455280Y-89504541D01*
X145545356Y-89400603D01*
X145583385Y-89349270D01*
X145596664Y-89334331D01*
X145608442Y-89335199D01*
G37*
D13*
%TO.C,U4*%
X153140000Y-114580000D02*
X151190000Y-114580000D01*
X153140000Y-114580000D02*
X155090000Y-114580000D01*
X153140000Y-119700000D02*
X151190000Y-119700000D01*
X153140000Y-119700000D02*
X155090000Y-119700000D01*
X150440000Y-114675000D02*
X150200000Y-114345000D01*
X150680000Y-114345000D01*
X150440000Y-114675000D01*
G36*
X150440000Y-114675000D02*
G01*
X150200000Y-114345000D01*
X150680000Y-114345000D01*
X150440000Y-114675000D01*
G37*
D14*
%TO.C,U3*%
X158990000Y-87152500D02*
G75*
G02*
X158790000Y-87152500I-100000J0D01*
G01*
X158790000Y-87152500D02*
G75*
G02*
X158990000Y-87152500I100000J0D01*
G01*
D15*
X149890000Y-87652500D02*
X175890000Y-87652500D01*
X175890000Y-87652500D02*
X175890000Y-113652500D01*
X175890000Y-113652500D02*
X169890000Y-113652500D01*
X169890000Y-113652500D02*
X169890000Y-111652500D01*
X169890000Y-111652500D02*
X155890000Y-111652500D01*
X155890000Y-111652500D02*
X155890000Y-113652500D01*
X155890000Y-113652500D02*
X149890000Y-113652500D01*
X149890000Y-113652500D02*
X149890000Y-87652500D01*
D13*
%TO.C,PWM6*%
X181445000Y-91085000D02*
X181445000Y-90340000D01*
X182180000Y-91085000D02*
X181445000Y-91085000D01*
X182915000Y-91085000D02*
X184790000Y-91085000D01*
X182915000Y-91085000D02*
X182915000Y-91025565D01*
X184790000Y-91085000D02*
X184790000Y-90750030D01*
X184790000Y-89929970D02*
X184790000Y-89595000D01*
X182915000Y-89654435D02*
X182915000Y-89595000D01*
X182915000Y-89595000D02*
X184790000Y-89595000D01*
%TO.C,PWM5*%
X181445000Y-94415000D02*
X181445000Y-93670000D01*
X182180000Y-94415000D02*
X181445000Y-94415000D01*
X182915000Y-94415000D02*
X184790000Y-94415000D01*
X182915000Y-94415000D02*
X182915000Y-94355565D01*
X184790000Y-94415000D02*
X184790000Y-94080030D01*
X184790000Y-93259970D02*
X184790000Y-92925000D01*
X182915000Y-92984435D02*
X182915000Y-92925000D01*
X182915000Y-92925000D02*
X184790000Y-92925000D01*
D14*
%TO.C,U2*%
X175725000Y-122240000D02*
G75*
G02*
X175525000Y-122240000I-100000J0D01*
G01*
X175525000Y-122240000D02*
G75*
G02*
X175725000Y-122240000I100000J0D01*
G01*
D15*
X179510000Y-124740000D02*
X179440000Y-124740000D01*
X179510000Y-121740000D02*
X179440000Y-121740000D01*
X176510000Y-124740000D02*
X176580000Y-124740000D01*
X176510000Y-121740000D02*
X176580000Y-121740000D01*
X179510000Y-124740000D02*
X179510000Y-124670000D01*
X179510000Y-121740000D02*
X179510000Y-121810000D01*
X176510000Y-124740000D02*
X176510000Y-124670000D01*
X176510000Y-121740000D02*
X176510000Y-121810000D01*
D13*
%TO.C,U5*%
X168470000Y-117770000D02*
X168880000Y-117770000D01*
X161900000Y-117770000D02*
X162550000Y-117770000D01*
X169120000Y-118420000D02*
X169120000Y-118070000D01*
X161900000Y-118420000D02*
X161900000Y-117770000D01*
X169120000Y-124340000D02*
X169120000Y-124990000D01*
X161900000Y-124340000D02*
X161900000Y-124990000D01*
X169120000Y-124990000D02*
X168470000Y-124990000D01*
X161900000Y-124990000D02*
X162550000Y-124990000D01*
X169450000Y-118010000D02*
X169120000Y-117770000D01*
X169450000Y-117530000D01*
X169450000Y-118010000D01*
G36*
X169450000Y-118010000D02*
G01*
X169120000Y-117770000D01*
X169450000Y-117530000D01*
X169450000Y-118010000D01*
G37*
%TO.C,PWM4*%
X181445000Y-97745000D02*
X181445000Y-97000000D01*
X182180000Y-97745000D02*
X181445000Y-97745000D01*
X182915000Y-97745000D02*
X184790000Y-97745000D01*
X182915000Y-97745000D02*
X182915000Y-97685565D01*
X184790000Y-97745000D02*
X184790000Y-97410030D01*
X184790000Y-96589970D02*
X184790000Y-96255000D01*
X182915000Y-96314435D02*
X182915000Y-96255000D01*
X182915000Y-96255000D02*
X184790000Y-96255000D01*
%TO.C,PWM1*%
X181445000Y-107735000D02*
X181445000Y-106990000D01*
X182180000Y-107735000D02*
X181445000Y-107735000D01*
X182915000Y-107735000D02*
X184790000Y-107735000D01*
X182915000Y-107735000D02*
X182915000Y-107675565D01*
X184790000Y-107735000D02*
X184790000Y-107400030D01*
X184790000Y-106579970D02*
X184790000Y-106245000D01*
X182915000Y-106304435D02*
X182915000Y-106245000D01*
X182915000Y-106245000D02*
X184790000Y-106245000D01*
%TO.C,PWM3*%
X181445000Y-101075000D02*
X181445000Y-100330000D01*
X182180000Y-101075000D02*
X181445000Y-101075000D01*
X182915000Y-101075000D02*
X184790000Y-101075000D01*
X182915000Y-101075000D02*
X182915000Y-101015565D01*
X184790000Y-101075000D02*
X184790000Y-100740030D01*
X184790000Y-99919970D02*
X184790000Y-99585000D01*
X182915000Y-99644435D02*
X182915000Y-99585000D01*
X182915000Y-99585000D02*
X184790000Y-99585000D01*
%TO.C,C3*%
X173332164Y-119060000D02*
X173547836Y-119060000D01*
X173332164Y-119780000D02*
X173547836Y-119780000D01*
%TO.C,C2*%
X173517836Y-122360000D02*
X173302164Y-122360000D01*
X173517836Y-121640000D02*
X173302164Y-121640000D01*
%TO.C,J1*%
X143580000Y-101000000D02*
X145280000Y-101000000D01*
X143580000Y-110340000D02*
X145280000Y-110340000D01*
%TO.C,C1*%
X173587836Y-116960000D02*
X173372164Y-116960000D01*
X173587836Y-116240000D02*
X173372164Y-116240000D01*
%TO.C,PWM2*%
X181445000Y-104405000D02*
X181445000Y-103660000D01*
X182180000Y-104405000D02*
X181445000Y-104405000D01*
X182915000Y-104405000D02*
X184790000Y-104405000D01*
X182915000Y-104405000D02*
X182915000Y-104345565D01*
X184790000Y-104405000D02*
X184790000Y-104070030D01*
X184790000Y-103249970D02*
X184790000Y-102915000D01*
X182915000Y-102974435D02*
X182915000Y-102915000D01*
X182915000Y-102915000D02*
X184790000Y-102915000D01*
D12*
%TO.C,G\u002A\u002A\u002A*%
G36*
X107439009Y-111205580D02*
G01*
X107508718Y-111209552D01*
X107568599Y-111216940D01*
X107600000Y-111223725D01*
X107725993Y-111268451D01*
X107841794Y-111329813D01*
X107946147Y-111406557D01*
X108037797Y-111497427D01*
X108115489Y-111601168D01*
X108177969Y-111716525D01*
X108223981Y-111842243D01*
X108226172Y-111850023D01*
X108235851Y-111899977D01*
X108242120Y-111963730D01*
X108244976Y-112035377D01*
X108244419Y-112109009D01*
X108240447Y-112178718D01*
X108233059Y-112238599D01*
X108226274Y-112270000D01*
X108181897Y-112394887D01*
X108120903Y-112510109D01*
X108044708Y-112614240D01*
X107954728Y-112705858D01*
X107852379Y-112783540D01*
X107739076Y-112845863D01*
X107616234Y-112891403D01*
X107605000Y-112894563D01*
X107570323Y-112901303D01*
X107521462Y-112907221D01*
X107464120Y-112912000D01*
X107404000Y-112915321D01*
X107346806Y-112916867D01*
X107298242Y-112916319D01*
X107265000Y-112913523D01*
X107167360Y-112890723D01*
X107066072Y-112854360D01*
X106968567Y-112807521D01*
X106886564Y-112756383D01*
X106790439Y-112675535D01*
X106706519Y-112579993D01*
X106636313Y-112471959D01*
X106581326Y-112353636D01*
X106553827Y-112269976D01*
X106544148Y-112220022D01*
X106537879Y-112156269D01*
X106535023Y-112084622D01*
X106535514Y-112019709D01*
X106605096Y-112019709D01*
X106605495Y-112110354D01*
X106613920Y-112196631D01*
X106627962Y-112262991D01*
X106672079Y-112382970D01*
X106732232Y-112492099D01*
X106807084Y-112589165D01*
X106895300Y-112672949D01*
X106995543Y-112742239D01*
X107106477Y-112795816D01*
X107226767Y-112832467D01*
X107261639Y-112839476D01*
X107315829Y-112845143D01*
X107382205Y-112846032D01*
X107453637Y-112842552D01*
X107522995Y-112835111D01*
X107583149Y-112824117D01*
X107598286Y-112820202D01*
X107716618Y-112776718D01*
X107824663Y-112716685D01*
X107921096Y-112641429D01*
X108004594Y-112552280D01*
X108073831Y-112450566D01*
X108127485Y-112337617D01*
X108151648Y-112265000D01*
X108167281Y-112187882D01*
X108174903Y-112100290D01*
X108174504Y-112009645D01*
X108166079Y-111923368D01*
X108152037Y-111857008D01*
X108107725Y-111736329D01*
X108047343Y-111626779D01*
X107972020Y-111529488D01*
X107882881Y-111445588D01*
X107781056Y-111376208D01*
X107667671Y-111322480D01*
X107595000Y-111298351D01*
X107517882Y-111282718D01*
X107430290Y-111275096D01*
X107339645Y-111275495D01*
X107253368Y-111283920D01*
X107187008Y-111297962D01*
X107066329Y-111342274D01*
X106956779Y-111402656D01*
X106859488Y-111477979D01*
X106775588Y-111567118D01*
X106706208Y-111668943D01*
X106652480Y-111782328D01*
X106628351Y-111855000D01*
X106612718Y-111932117D01*
X106605096Y-112019709D01*
X106535514Y-112019709D01*
X106535580Y-112010990D01*
X106539552Y-111941281D01*
X106546940Y-111881400D01*
X106553725Y-111850000D01*
X106598451Y-111724006D01*
X106659813Y-111608205D01*
X106736557Y-111503852D01*
X106827427Y-111412202D01*
X106931168Y-111334510D01*
X107046525Y-111272030D01*
X107172243Y-111226018D01*
X107180023Y-111223827D01*
X107229977Y-111214148D01*
X107293730Y-111207879D01*
X107365377Y-111205023D01*
X107439009Y-111205580D01*
G37*
G36*
X109890000Y-111040000D02*
G01*
X109890000Y-113540000D01*
X107390000Y-113540000D01*
X104890000Y-113540000D01*
X104890000Y-113490000D01*
X104940000Y-113490000D01*
X107390000Y-113490000D01*
X109840000Y-113490000D01*
X109840000Y-111615000D01*
X109840000Y-109740000D01*
X109392235Y-109740000D01*
X108944471Y-109740000D01*
X108722359Y-109857500D01*
X108500247Y-109975000D01*
X108500123Y-110022821D01*
X108491381Y-110085589D01*
X108467462Y-110139446D01*
X108431306Y-110183070D01*
X108385856Y-110215138D01*
X108334053Y-110234326D01*
X108278837Y-110239312D01*
X108223151Y-110228774D01*
X108169936Y-110201388D01*
X108146239Y-110181969D01*
X108108122Y-110133851D01*
X108086788Y-110079486D01*
X108082205Y-110029386D01*
X108175000Y-110029386D01*
X108183716Y-110078015D01*
X108208825Y-110116567D01*
X108245000Y-110140971D01*
X108283159Y-110147882D01*
X108325205Y-110140228D01*
X108363520Y-110119804D01*
X108374066Y-110110549D01*
X108393683Y-110087474D01*
X108402761Y-110064066D01*
X108404999Y-110030693D01*
X108405000Y-110030000D01*
X108402904Y-109996621D01*
X108394004Y-109973169D01*
X108374383Y-109949781D01*
X108372307Y-109947692D01*
X108348514Y-109927079D01*
X108325419Y-109917491D01*
X108293159Y-109915008D01*
X108290000Y-109915000D01*
X108256621Y-109917095D01*
X108233169Y-109925995D01*
X108209781Y-109945616D01*
X108207692Y-109947692D01*
X108186929Y-109971734D01*
X108177370Y-109995139D01*
X108175001Y-110027933D01*
X108175000Y-110029386D01*
X108082205Y-110029386D01*
X108081565Y-110022392D01*
X108091784Y-109966092D01*
X108116774Y-109914105D01*
X108155866Y-109869952D01*
X108208390Y-109837154D01*
X108212178Y-109835530D01*
X108267110Y-109822088D01*
X108325022Y-109824001D01*
X108379678Y-109840257D01*
X108424839Y-109869848D01*
X108424967Y-109869969D01*
X108431463Y-109875444D01*
X108438782Y-109878496D01*
X108449074Y-109878238D01*
X108464492Y-109873783D01*
X108487186Y-109864242D01*
X108519307Y-109848728D01*
X108563007Y-109826353D01*
X108620438Y-109796229D01*
X108680103Y-109764690D01*
X108915000Y-109640397D01*
X109377500Y-109640198D01*
X109840000Y-109640000D01*
X109840000Y-109465000D01*
X109840000Y-109290000D01*
X109222122Y-109290000D01*
X108604245Y-109290000D01*
X108380597Y-109408794D01*
X108156950Y-109527589D01*
X108155975Y-109591294D01*
X108147336Y-109657222D01*
X108123300Y-109710659D01*
X108083357Y-109752465D01*
X108048181Y-109774033D01*
X107990961Y-109795227D01*
X107937342Y-109798314D01*
X107882388Y-109783247D01*
X107858985Y-109772156D01*
X107823085Y-109750158D01*
X107798252Y-109724808D01*
X107777843Y-109691014D01*
X107755552Y-109633455D01*
X107752551Y-109590031D01*
X107840000Y-109590031D01*
X107847974Y-109627131D01*
X107868358Y-109664055D01*
X107895840Y-109691353D01*
X107897556Y-109692452D01*
X107936303Y-109707829D01*
X107976744Y-109705162D01*
X108003928Y-109694838D01*
X108035610Y-109671516D01*
X108059318Y-109638726D01*
X108069865Y-109603920D01*
X108070000Y-109599968D01*
X108061628Y-109560593D01*
X108039577Y-109524336D01*
X108008442Y-109496207D01*
X107972817Y-109481216D01*
X107959968Y-109480000D01*
X107920593Y-109488371D01*
X107884336Y-109510422D01*
X107856207Y-109541557D01*
X107841216Y-109577182D01*
X107840000Y-109590031D01*
X107752551Y-109590031D01*
X107751755Y-109578519D01*
X107766344Y-109521492D01*
X107773491Y-109504972D01*
X107807566Y-109453170D01*
X107852912Y-109416521D01*
X107906734Y-109395964D01*
X107966233Y-109392437D01*
X108028613Y-109406880D01*
X108045184Y-109413798D01*
X108102742Y-109440149D01*
X108339858Y-109315074D01*
X108576974Y-109190000D01*
X109208487Y-109190000D01*
X109840000Y-109190000D01*
X109840000Y-108890000D01*
X109840000Y-108590000D01*
X107390000Y-108590000D01*
X104940000Y-108590000D01*
X104940000Y-111040000D01*
X104940000Y-113490000D01*
X104890000Y-113490000D01*
X104890000Y-111040000D01*
X104890000Y-108540000D01*
X107390000Y-108540000D01*
X109890000Y-108540000D01*
X109890000Y-111040000D01*
G37*
G36*
X109528442Y-110315199D02*
G01*
X109535216Y-110320179D01*
X109557184Y-110346359D01*
X109573569Y-110385109D01*
X109585318Y-110439183D01*
X109590616Y-110480881D01*
X109594442Y-110550441D01*
X109592779Y-110624458D01*
X109586171Y-110696758D01*
X109575166Y-110761166D01*
X109561708Y-110807925D01*
X109543181Y-110856685D01*
X109566590Y-110883900D01*
X109582695Y-110909876D01*
X109589965Y-110935929D01*
X109590000Y-110937400D01*
X109581741Y-110977420D01*
X109558538Y-111023325D01*
X109522747Y-111070967D01*
X109500939Y-111094074D01*
X109451359Y-111142909D01*
X109483179Y-111164277D01*
X109510023Y-111191337D01*
X109518802Y-111222775D01*
X109510519Y-111256930D01*
X109486175Y-111292138D01*
X109446772Y-111326735D01*
X109393310Y-111359059D01*
X109355404Y-111376463D01*
X109329104Y-111388578D01*
X109317303Y-111399672D01*
X109315617Y-111415316D01*
X109316980Y-111425266D01*
X109313023Y-111460269D01*
X109290454Y-111493131D01*
X109250629Y-111522859D01*
X109194904Y-111548460D01*
X109124634Y-111568942D01*
X109119059Y-111570190D01*
X109086224Y-111578647D01*
X109067265Y-111588296D01*
X109056247Y-111603080D01*
X109051275Y-111615237D01*
X109028957Y-111648410D01*
X109004457Y-111664587D01*
X108953771Y-111682588D01*
X108887687Y-111696872D01*
X108810535Y-111706994D01*
X108726647Y-111712512D01*
X108640353Y-111712983D01*
X108568847Y-111709127D01*
X108487822Y-111696948D01*
X108422143Y-111674343D01*
X108369128Y-111639541D01*
X108326092Y-111590773D01*
X108290354Y-111526268D01*
X108289782Y-111525000D01*
X108268380Y-111472325D01*
X108257198Y-111429536D01*
X108256519Y-111416279D01*
X108332082Y-111416279D01*
X108347272Y-111475441D01*
X108360281Y-111505589D01*
X108390957Y-111557839D01*
X108427255Y-111594082D01*
X108473745Y-111618283D01*
X108499387Y-111626350D01*
X108531743Y-111631858D01*
X108578972Y-111635829D01*
X108636007Y-111638227D01*
X108697776Y-111639015D01*
X108759212Y-111638156D01*
X108815245Y-111635615D01*
X108860805Y-111631354D01*
X108875461Y-111629068D01*
X108927311Y-111617284D01*
X108962005Y-111603472D01*
X108982385Y-111585907D01*
X108991293Y-111562863D01*
X108991860Y-111558386D01*
X108994108Y-111543380D01*
X108999827Y-111532906D01*
X109012819Y-111524783D01*
X109036887Y-111516826D01*
X109075832Y-111506855D01*
X109085931Y-111504380D01*
X109150681Y-111486634D01*
X109200119Y-111468998D01*
X109232562Y-111452146D01*
X109244571Y-111440693D01*
X109240270Y-111430422D01*
X109223083Y-111413706D01*
X109204088Y-111399373D01*
X109157766Y-111367502D01*
X109241383Y-111340433D01*
X109316741Y-111313518D01*
X109374324Y-111287084D01*
X109416301Y-111260076D01*
X109428481Y-111249567D01*
X109442520Y-111230551D01*
X109437664Y-111217777D01*
X109413847Y-111211177D01*
X109392756Y-111210153D01*
X109367611Y-111205986D01*
X109350850Y-111190081D01*
X109344247Y-111178543D01*
X109334777Y-111158144D01*
X109335445Y-111145095D01*
X109348571Y-111131772D01*
X109361490Y-111121904D01*
X109390912Y-111097448D01*
X109423941Y-111066381D01*
X109456765Y-111032753D01*
X109485573Y-111000613D01*
X109506551Y-110974009D01*
X109515550Y-110958264D01*
X109515400Y-110934892D01*
X109507817Y-110925761D01*
X109492971Y-110909523D01*
X109477801Y-110885571D01*
X109477779Y-110885529D01*
X109468686Y-110864536D01*
X109469009Y-110847208D01*
X109479235Y-110823733D01*
X109481017Y-110820293D01*
X109498168Y-110777697D01*
X109510094Y-110724409D01*
X109517212Y-110657613D01*
X109519942Y-110574498D01*
X109520000Y-110558387D01*
X109520000Y-110439504D01*
X109417500Y-110543115D01*
X109326588Y-110629353D01*
X109239981Y-110699179D01*
X109154477Y-110754719D01*
X109066873Y-110798099D01*
X108991123Y-110826120D01*
X108898973Y-110860305D01*
X108806212Y-110903328D01*
X108715338Y-110953359D01*
X108628850Y-111008571D01*
X108549247Y-111067136D01*
X108479027Y-111127225D01*
X108420689Y-111187010D01*
X108376732Y-111244663D01*
X108351074Y-111294423D01*
X108333443Y-111358108D01*
X108332082Y-111416279D01*
X108256519Y-111416279D01*
X108255173Y-111390003D01*
X108261231Y-111347151D01*
X108278554Y-111284034D01*
X108304063Y-111227364D01*
X108340470Y-111172729D01*
X108390486Y-111115720D01*
X108423961Y-111082536D01*
X108546071Y-110978182D01*
X108677952Y-110889754D01*
X108821742Y-110815963D01*
X108947870Y-110766222D01*
X109006049Y-110745421D01*
X109050814Y-110727683D01*
X109087889Y-110710258D01*
X109122996Y-110690397D01*
X109161860Y-110665350D01*
X109171852Y-110658621D01*
X109275692Y-110578956D01*
X109375280Y-110484541D01*
X109465356Y-110380603D01*
X109503385Y-110329270D01*
X109516664Y-110314331D01*
X109528442Y-110315199D01*
G37*
G36*
X105270138Y-110317719D02*
G01*
X105278871Y-110329895D01*
X105315476Y-110380476D01*
X105361957Y-110437035D01*
X105412574Y-110493051D01*
X105461587Y-110542004D01*
X105480964Y-110559452D01*
X105558950Y-110623292D01*
X105630088Y-110673521D01*
X105698997Y-110712911D01*
X105770299Y-110744235D01*
X105815000Y-110759939D01*
X105952512Y-110813354D01*
X106087329Y-110882647D01*
X106214463Y-110964842D01*
X106328926Y-111056963D01*
X106357684Y-111083801D01*
X106417642Y-111146290D01*
X106462028Y-111204033D01*
X106493261Y-111261020D01*
X106513760Y-111321240D01*
X106520448Y-111352197D01*
X106525243Y-111384672D01*
X106525124Y-111411349D01*
X106519195Y-111440247D01*
X106506561Y-111479385D01*
X106506091Y-111480738D01*
X106477479Y-111550576D01*
X106444120Y-111605345D01*
X106403399Y-111646797D01*
X106352698Y-111676685D01*
X106289402Y-111696763D01*
X106210894Y-111708783D01*
X106160000Y-111712610D01*
X106113816Y-111713702D01*
X106058037Y-111712919D01*
X106002962Y-111710448D01*
X105990000Y-111709549D01*
X105901477Y-111699870D01*
X105831718Y-111685517D01*
X105779975Y-111666221D01*
X105745503Y-111641711D01*
X105728724Y-111615237D01*
X105719573Y-111595792D01*
X105705843Y-111583716D01*
X105681601Y-111575068D01*
X105660940Y-111570190D01*
X105589174Y-111550025D01*
X105532364Y-111524785D01*
X105491732Y-111495377D01*
X105468504Y-111462705D01*
X105463904Y-111427676D01*
X105464392Y-111424720D01*
X105466646Y-111404773D01*
X105460883Y-111392574D01*
X105442771Y-111382533D01*
X105426828Y-111376229D01*
X105367893Y-111348803D01*
X105320691Y-111317027D01*
X105286383Y-111282849D01*
X105266130Y-111248220D01*
X105261091Y-111215090D01*
X105272428Y-111185409D01*
X105299440Y-111162173D01*
X105328162Y-111145688D01*
X105272717Y-111085801D01*
X105228034Y-111032085D01*
X105200852Y-110985708D01*
X105190716Y-110945192D01*
X105197173Y-110909061D01*
X105211288Y-110885633D01*
X105223239Y-110868949D01*
X105227509Y-110854545D01*
X105224533Y-110835117D01*
X105215956Y-110807108D01*
X105201423Y-110747486D01*
X105191159Y-110675458D01*
X105185751Y-110598275D01*
X105185769Y-110557007D01*
X105260034Y-110557007D01*
X105262196Y-110643705D01*
X105269046Y-110713905D01*
X105281051Y-110770657D01*
X105298677Y-110817012D01*
X105300239Y-110820156D01*
X105311106Y-110844809D01*
X105312040Y-110862467D01*
X105303382Y-110883297D01*
X105302415Y-110885156D01*
X105287453Y-110909031D01*
X105273059Y-110925117D01*
X105272818Y-110925297D01*
X105264087Y-110938145D01*
X105267814Y-110959133D01*
X105269135Y-110962726D01*
X105282411Y-110984776D01*
X105307085Y-111015271D01*
X105339133Y-111049925D01*
X105374527Y-111084451D01*
X105409244Y-111114563D01*
X105418509Y-111121781D01*
X105439229Y-111138442D01*
X105446271Y-111150715D01*
X105441951Y-111166224D01*
X105435752Y-111178543D01*
X105419966Y-111201048D01*
X105399388Y-111209473D01*
X105387243Y-111210153D01*
X105353051Y-111213387D01*
X105337805Y-111222772D01*
X105341375Y-111238454D01*
X105351518Y-111250016D01*
X105375968Y-111267886D01*
X105413842Y-111289160D01*
X105459508Y-111311170D01*
X105507332Y-111331254D01*
X105551682Y-111346745D01*
X105562500Y-111349839D01*
X105589892Y-111358556D01*
X105607056Y-111366631D01*
X105610000Y-111369970D01*
X105602363Y-111379254D01*
X105582866Y-111394823D01*
X105568120Y-111405056D01*
X105526240Y-111432771D01*
X105549324Y-111451463D01*
X105572593Y-111464597D01*
X105609820Y-111479453D01*
X105655286Y-111494157D01*
X105703275Y-111506837D01*
X105742419Y-111514730D01*
X105768817Y-111521951D01*
X105781798Y-111535369D01*
X105785754Y-111547938D01*
X105793309Y-111578550D01*
X105801385Y-111595618D01*
X105813957Y-111605297D01*
X105826139Y-111610433D01*
X105862903Y-111620135D01*
X105914785Y-111628119D01*
X105976957Y-111634180D01*
X106044595Y-111638114D01*
X106112871Y-111639716D01*
X106176961Y-111638782D01*
X106232038Y-111635105D01*
X106270000Y-111629264D01*
X106327030Y-111609572D01*
X106371240Y-111577854D01*
X106406492Y-111530936D01*
X106419352Y-111506357D01*
X106443250Y-111439029D01*
X106448843Y-111374134D01*
X106435799Y-111310233D01*
X106403791Y-111245886D01*
X106352488Y-111179654D01*
X106341933Y-111168220D01*
X106247293Y-111079872D01*
X106137076Y-110997771D01*
X106015356Y-110924447D01*
X105886209Y-110862433D01*
X105791974Y-110826566D01*
X105665142Y-110773218D01*
X105544271Y-110701091D01*
X105429087Y-110609996D01*
X105330292Y-110511895D01*
X105260068Y-110435000D01*
X105260034Y-110557007D01*
X105185769Y-110557007D01*
X105185783Y-110523190D01*
X105189250Y-110476693D01*
X105199130Y-110413226D01*
X105212931Y-110366549D01*
X105231732Y-110333655D01*
X105245712Y-110319409D01*
X105259219Y-110311480D01*
X105270138Y-110317719D01*
G37*
D13*
%TO.C,12VBattery1*%
X105345000Y-106125000D02*
X105345000Y-105250000D01*
X105404435Y-106125000D02*
X105345000Y-106125000D01*
X105679970Y-105250000D02*
X105345000Y-105250000D01*
X106835000Y-105250000D02*
X106500030Y-105250000D01*
X106835000Y-106125000D02*
X106775565Y-106125000D01*
X106835000Y-106125000D02*
X106835000Y-105250000D01*
X106835000Y-106860000D02*
X106835000Y-107595000D01*
X106835000Y-107595000D02*
X106090000Y-107595000D01*
%TO.C,U1*%
X110235000Y-106305000D02*
X110235000Y-108255000D01*
X110235000Y-106305000D02*
X110235000Y-104355000D01*
X115355000Y-106305000D02*
X115355000Y-108255000D01*
X115355000Y-106305000D02*
X115355000Y-104355000D01*
X110330000Y-109005000D02*
X110000000Y-109245000D01*
X110000000Y-108765000D01*
X110330000Y-109005000D01*
G36*
X110330000Y-109005000D02*
G01*
X110000000Y-109245000D01*
X110000000Y-108765000D01*
X110330000Y-109005000D01*
G37*
%TD*%
M02*
